  0
SECTION
  2
HEADER
  9
$ACADVER
  1
AC1009
  0
ENDSEC
  0
SECTION
  2
ENTITIES
  0
POLYLINE
  8
COPPER (ANNEALED)
 66
1
 39
0
 10
0.000000
 20
0.000000
 30
0.000000
 70
1
  0
VERTEX
  8
COPPER (ANNEALED)
 39
0
 10
49.750000
 20
9.600000
 30
0.000000
 70
0
 42
0.198912
  0
VERTEX
  8
COPPER (ANNEALED)
 39
0
 10
51.164214
 20
10.185786
 30
0.000000
 70
0
 42
0.198912
  0
VERTEX
  8
COPPER (ANNEALED)
 39
0
 10
51.750000
 20
11.600000
 30
0.000000
 70
0
 42
0
  0
VERTEX
  8
COPPER (ANNEALED)
 39
0
 10
51.750000
 20
24.403449
 30
0.000000
 70
0
 42
0.198912
  0
VERTEX
  8
COPPER (ANNEALED)
 39
0
 10
51.164214
 20
25.817662
 30
0.000000
 70
0
 42
0.198912
  0
VERTEX
  8
COPPER (ANNEALED)
 39
0
 10
49.750000
 20
26.403449
 30
0.000000
 70
0
 42
0
  0
VERTEX
  8
COPPER (ANNEALED)
 39
0
 10
43.839192
 20
26.403449
 30
0.000000
 70
0
 42
-0.0984914
  0
VERTEX
  8
COPPER (ANNEALED)
 39
0
 10
43.073825
 20
26.555690
 30
0.000000
 70
0
 42
-0.0984914
  0
VERTEX
  8
COPPER (ANNEALED)
 39
0
 10
42.424978
 20
26.989235
 30
0.000000
 70
0
 42
0
  0
VERTEX
  8
COPPER (ANNEALED)
 39
0
 10
39.283200
 20
30.131014
 30
0.000000
 70
0
 42
0
  0
VERTEX
  8
COPPER (ANNEALED)
 39
0
 10
37.868986
 20
28.716800
 30
0.000000
 70
0
 42
0
  0
VERTEX
  8
COPPER (ANNEALED)
 39
0
 10
41.596551
 20
24.989235
 30
0.000000
 70
0
 42
0.0984914
  0
VERTEX
  8
COPPER (ANNEALED)
 39
0
 10
42.245398
 20
24.555690
 30
0.000000
 70
0
 42
0.0984914
  0
VERTEX
  8
COPPER (ANNEALED)
 39
0
 10
43.010765
 20
24.403449
 30
0.000000
 70
0
 42
0
  0
VERTEX
  8
COPPER (ANNEALED)
 39
0
 10
47.750000
 20
24.403449
 30
0.000000
 70
0
 42
-0.198912
  0
VERTEX
  8
COPPER (ANNEALED)
 39
0
 10
49.164214
 20
23.817662
 30
0.000000
 70
0
 42
-0.198912
  0
VERTEX
  8
COPPER (ANNEALED)
 39
0
 10
49.750000
 20
22.403449
 30
0.000000
 70
0
 42
0
  0
VERTEX
  8
COPPER (ANNEALED)
 39
0
 10
49.750000
 20
13.600000
 30
0.000000
 70
0
 42
-0.198912
  0
VERTEX
  8
COPPER (ANNEALED)
 39
0
 10
49.164214
 20
12.185786
 30
0.000000
 70
0
 42
-0.198912
  0
VERTEX
  8
COPPER (ANNEALED)
 39
0
 10
47.750000
 20
11.600000
 30
0.000000
 70
0
 42
0
  0
VERTEX
  8
COPPER (ANNEALED)
 39
0
 10
47.250000
 20
11.600000
 30
0.000000
 70
0
 42
-0.198912
  0
VERTEX
  8
COPPER (ANNEALED)
 39
0
 10
45.835786
 20
12.185786
 30
0.000000
 70
0
 42
-0.198912
  0
VERTEX
  8
COPPER (ANNEALED)
 39
0
 10
45.250000
 20
13.600000
 30
0.000000
 70
0
 42
0
  0
VERTEX
  8
COPPER (ANNEALED)
 39
0
 10
45.250000
 20
21.000000
 30
0.000000
 70
0
 42
0
  0
VERTEX
  8
COPPER (ANNEALED)
 39
0
 10
43.250000
 20
21.000000
 30
0.000000
 70
0
 42
0
  0
VERTEX
  8
COPPER (ANNEALED)
 39
0
 10
43.250000
 20
11.600000
 30
0.000000
 70
0
 42
0.198912
  0
VERTEX
  8
COPPER (ANNEALED)
 39
0
 10
43.835786
 20
10.185786
 30
0.000000
 70
0
 42
0.198912
  0
VERTEX
  8
COPPER (ANNEALED)
 39
0
 10
45.250000
 20
9.600000
 30
0.000000
 70
0
 42
0
  0
SEQEND
  8
COPPER (ANNEALED)
  0
POLYLINE
  8
COPPER (ANNEALED)
 66
1
 39
0
 10
0.000000
 20
0.000000
 30
0.000000
 70
1
  0
VERTEX
  8
COPPER (ANNEALED)
 39
0
 10
12.250000
 20
11.600000
 30
0.000000
 70
0
 42
0.198912
  0
VERTEX
  8
COPPER (ANNEALED)
 39
0
 10
12.835786
 20
10.185786
 30
0.000000
 70
0
 42
0.198912
  0
VERTEX
  8
COPPER (ANNEALED)
 39
0
 10
14.250000
 20
9.600000
 30
0.000000
 70
0
 42
0
  0
VERTEX
  8
COPPER (ANNEALED)
 39
0
 10
18.750000
 20
9.600000
 30
0.000000
 70
0
 42
0.198912
  0
VERTEX
  8
COPPER (ANNEALED)
 39
0
 10
20.164214
 20
10.185786
 30
0.000000
 70
0
 42
0.198912
  0
VERTEX
  8
COPPER (ANNEALED)
 39
0
 10
20.750000
 20
11.600000
 30
0.000000
 70
0
 42
0
  0
VERTEX
  8
COPPER (ANNEALED)
 39
0
 10
20.750000
 20
21.000000
 30
0.000000
 70
0
 42
0
  0
VERTEX
  8
COPPER (ANNEALED)
 39
0
 10
18.750000
 20
21.000000
 30
0.000000
 70
0
 42
0
  0
VERTEX
  8
COPPER (ANNEALED)
 39
0
 10
18.750000
 20
13.600000
 30
0.000000
 70
0
 42
-0.198912
  0
VERTEX
  8
COPPER (ANNEALED)
 39
0
 10
18.164214
 20
12.185786
 30
0.000000
 70
0
 42
-0.198912
  0
VERTEX
  8
COPPER (ANNEALED)
 39
0
 10
16.750000
 20
11.600000
 30
0.000000
 70
0
 42
0
  0
VERTEX
  8
COPPER (ANNEALED)
 39
0
 10
16.250000
 20
11.600000
 30
0.000000
 70
0
 42
-0.198912
  0
VERTEX
  8
COPPER (ANNEALED)
 39
0
 10
14.835786
 20
12.185786
 30
0.000000
 70
0
 42
-0.198912
  0
VERTEX
  8
COPPER (ANNEALED)
 39
0
 10
14.250000
 20
13.600000
 30
0.000000
 70
0
 42
0
  0
VERTEX
  8
COPPER (ANNEALED)
 39
0
 10
14.250000
 20
22.403449
 30
0.000000
 70
0
 42
-0.198912
  0
VERTEX
  8
COPPER (ANNEALED)
 39
0
 10
14.835786
 20
23.817662
 30
0.000000
 70
0
 42
-0.198912
  0
VERTEX
  8
COPPER (ANNEALED)
 39
0
 10
16.250000
 20
24.403449
 30
0.000000
 70
0
 42
0
  0
VERTEX
  8
COPPER (ANNEALED)
 39
0
 10
20.989235
 20
24.403449
 30
0.000000
 70
0
 42
0.0984914
  0
VERTEX
  8
COPPER (ANNEALED)
 39
0
 10
21.754602
 20
24.555690
 30
0.000000
 70
0
 42
0.0984914
  0
VERTEX
  8
COPPER (ANNEALED)
 39
0
 10
22.403449
 20
24.989235
 30
0.000000
 70
0
 42
0
  0
VERTEX
  8
COPPER (ANNEALED)
 39
0
 10
26.131014
 20
28.716800
 30
0.000000
 70
0
 42
0
  0
VERTEX
  8
COPPER (ANNEALED)
 39
0
 10
24.716800
 20
30.131014
 30
0.000000
 70
0
 42
0
  0
VERTEX
  8
COPPER (ANNEALED)
 39
0
 10
21.575022
 20
26.989235
 30
0.000000
 70
0
 42
-0.0984914
  0
VERTEX
  8
COPPER (ANNEALED)
 39
0
 10
20.926175
 20
26.555690
 30
0.000000
 70
0
 42
-0.0984914
  0
VERTEX
  8
COPPER (ANNEALED)
 39
0
 10
20.160808
 20
26.403449
 30
0.000000
 70
0
 42
0
  0
VERTEX
  8
COPPER (ANNEALED)
 39
0
 10
14.250000
 20
26.403449
 30
0.000000
 70
0
 42
0.198912
  0
VERTEX
  8
COPPER (ANNEALED)
 39
0
 10
12.835786
 20
25.817662
 30
0.000000
 70
0
 42
0.198912
  0
VERTEX
  8
COPPER (ANNEALED)
 39
0
 10
12.250000
 20
24.403449
 30
0.000000
 70
0
 42
0
  0
SEQEND
  8
COPPER (ANNEALED)
  0
CIRCLE
  8
COPPER (ANNEALED)
 39
0
 10
44.250000
 20
20.000000
 30
0.000000
 40
0.45
  0
CIRCLE
  8
COPPER (ANNEALED)
 39
0
 10
44.250000
 20
20.000000
 30
0.000000
 40
0.4848
  0
CIRCLE
  8
COPPER (ANNEALED)
 39
0
 10
19.750000
 20
20.000000
 30
0.000000
 40
0.45
  0
CIRCLE
  8
COPPER (ANNEALED)
 39
0
 10
19.750000
 20
20.000000
 30
0.000000
 40
0.4848
  0
ENDSEC
  0
EOF
