  0
SECTION
  2
HEADER
  9
$ACADVER
  1
AC1009
  0
ENDSEC
  0
SECTION
  2
ENTITIES
  0
CIRCLE
  8
COPPER (ANNEALED)
 39
0
 10
32.000000
 20
36.000000
 30
0.000000
 40
15.6
  0
POLYLINE
  8
COPPER (ANNEALED)
 66
1
 39
0
 10
0.000000
 20
0.000000
 30
0.000000
 70
1
  0
VERTEX
  8
COPPER (ANNEALED)
 39
0
 10
43.557546
 20
37.820198
 30
0.000000
 70
0
 42
0.158608
  0
VERTEX
  8
COPPER (ANNEALED)
 39
0
 10
40.273149
 20
44.273149
 30
0.000000
 70
0
 42
0.158608
  0
VERTEX
  8
COPPER (ANNEALED)
 39
0
 10
33.820198
 20
47.557546
 30
0.000000
 70
0
 42
0
  0
VERTEX
  8
COPPER (ANNEALED)
 39
0
 10
34.294694
 20
50.570411
 30
0.000000
 70
0
 42
-0.0733257
  0
VERTEX
  8
COPPER (ANNEALED)
 39
0
 10
38.402270
 20
49.288094
 30
0.000000
 70
0
 42
-0.0733257
  0
VERTEX
  8
COPPER (ANNEALED)
 39
0
 10
41.964956
 20
46.874841
 30
0.000000
 70
0
 42
0
  0
VERTEX
  8
COPPER (ANNEALED)
 39
0
 10
41.356924
 20
46.211291
 30
0.000000
 70
0
 42
0.0629147
  0
VERTEX
  8
COPPER (ANNEALED)
 39
0
 10
38.523515
 20
48.217457
 30
0.000000
 70
0
 42
0.0629147
  0
VERTEX
  8
COPPER (ANNEALED)
 39
0
 10
35.280208
 20
49.455955
 30
0.000000
 70
0
 42
0
  0
VERTEX
  8
COPPER (ANNEALED)
 39
0
 10
34.984161
 20
48.241519
 30
0.000000
 70
0
 42
-0.137428
  0
VERTEX
  8
COPPER (ANNEALED)
 39
0
 10
40.909545
 20
44.909545
 30
0.000000
 70
0
 42
-0.137428
  0
VERTEX
  8
COPPER (ANNEALED)
 39
0
 10
44.241519
 20
38.984161
 30
0.000000
 70
0
 42
0
  0
VERTEX
  8
COPPER (ANNEALED)
 39
0
 10
45.455955
 20
39.280208
 30
0.000000
 70
0
 42
0.0629147
  0
VERTEX
  8
COPPER (ANNEALED)
 39
0
 10
44.217457
 20
42.523515
 30
0.000000
 70
0
 42
0.0629147
  0
VERTEX
  8
COPPER (ANNEALED)
 39
0
 10
42.211291
 20
45.356924
 30
0.000000
 70
0
 42
0
  0
VERTEX
  8
COPPER (ANNEALED)
 39
0
 10
42.874841
 20
45.964956
 30
0.000000
 70
0
 42
-0.0733257
  0
VERTEX
  8
COPPER (ANNEALED)
 39
0
 10
45.288094
 20
42.402270
 30
0.000000
 70
0
 42
-0.0733257
  0
VERTEX
  8
COPPER (ANNEALED)
 39
0
 10
46.570411
 20
38.294694
 30
0.000000
 70
0
 42
0
  0
SEQEND
  8
COPPER (ANNEALED)
  0
POLYLINE
  8
COPPER (ANNEALED)
 66
1
 39
0
 10
0.000000
 20
0.000000
 30
0.000000
 70
1
  0
VERTEX
  8
COPPER (ANNEALED)
 39
0
 10
30.179802
 20
47.557546
 30
0.000000
 70
0
 42
0.158608
  0
VERTEX
  8
COPPER (ANNEALED)
 39
0
 10
23.726851
 20
44.273149
 30
0.000000
 70
0
 42
0.158608
  0
VERTEX
  8
COPPER (ANNEALED)
 39
0
 10
20.442454
 20
37.820198
 30
0.000000
 70
0
 42
0
  0
VERTEX
  8
COPPER (ANNEALED)
 39
0
 10
17.429589
 20
38.294694
 30
0.000000
 70
0
 42
-0.0733257
  0
VERTEX
  8
COPPER (ANNEALED)
 39
0
 10
18.711906
 20
42.402270
 30
0.000000
 70
0
 42
-0.0733257
  0
VERTEX
  8
COPPER (ANNEALED)
 39
0
 10
21.125159
 20
45.964956
 30
0.000000
 70
0
 42
0
  0
VERTEX
  8
COPPER (ANNEALED)
 39
0
 10
21.788709
 20
45.356924
 30
0.000000
 70
0
 42
0.0629147
  0
VERTEX
  8
COPPER (ANNEALED)
 39
0
 10
19.782543
 20
42.523515
 30
0.000000
 70
0
 42
0.0629147
  0
VERTEX
  8
COPPER (ANNEALED)
 39
0
 10
18.544045
 20
39.280208
 30
0.000000
 70
0
 42
0
  0
VERTEX
  8
COPPER (ANNEALED)
 39
0
 10
19.758481
 20
38.984161
 30
0.000000
 70
0
 42
-0.137428
  0
VERTEX
  8
COPPER (ANNEALED)
 39
0
 10
23.090455
 20
44.909545
 30
0.000000
 70
0
 42
-0.137428
  0
VERTEX
  8
COPPER (ANNEALED)
 39
0
 10
29.015839
 20
48.241519
 30
0.000000
 70
0
 42
0
  0
VERTEX
  8
COPPER (ANNEALED)
 39
0
 10
28.719792
 20
49.455955
 30
0.000000
 70
0
 42
0.0629147
  0
VERTEX
  8
COPPER (ANNEALED)
 39
0
 10
25.476485
 20
48.217457
 30
0.000000
 70
0
 42
0.0629147
  0
VERTEX
  8
COPPER (ANNEALED)
 39
0
 10
22.643076
 20
46.211291
 30
0.000000
 70
0
 42
0
  0
VERTEX
  8
COPPER (ANNEALED)
 39
0
 10
22.035044
 20
46.874841
 30
0.000000
 70
0
 42
-0.0733257
  0
VERTEX
  8
COPPER (ANNEALED)
 39
0
 10
25.597730
 20
49.288094
 30
0.000000
 70
0
 42
-0.0733257
  0
VERTEX
  8
COPPER (ANNEALED)
 39
0
 10
29.705306
 20
50.570411
 30
0.000000
 70
0
 42
0
  0
SEQEND
  8
COPPER (ANNEALED)
  0
POLYLINE
  8
COPPER (ANNEALED)
 66
1
 39
0
 10
0.000000
 20
0.000000
 30
0.000000
 70
1
  0
VERTEX
  8
COPPER (ANNEALED)
 39
0
 10
33.820198
 20
24.442454
 30
0.000000
 70
0
 42
0.158608
  0
VERTEX
  8
COPPER (ANNEALED)
 39
0
 10
40.273149
 20
27.726851
 30
0.000000
 70
0
 42
0.158608
  0
VERTEX
  8
COPPER (ANNEALED)
 39
0
 10
43.557546
 20
34.179802
 30
0.000000
 70
0
 42
0
  0
VERTEX
  8
COPPER (ANNEALED)
 39
0
 10
46.570411
 20
33.705306
 30
0.000000
 70
0
 42
-0.0733257
  0
VERTEX
  8
COPPER (ANNEALED)
 39
0
 10
45.288094
 20
29.597730
 30
0.000000
 70
0
 42
-0.0733257
  0
VERTEX
  8
COPPER (ANNEALED)
 39
0
 10
42.874841
 20
26.035044
 30
0.000000
 70
0
 42
0
  0
VERTEX
  8
COPPER (ANNEALED)
 39
0
 10
42.211291
 20
26.643076
 30
0.000000
 70
0
 42
0.0629147
  0
VERTEX
  8
COPPER (ANNEALED)
 39
0
 10
44.217457
 20
29.476485
 30
0.000000
 70
0
 42
0.0629147
  0
VERTEX
  8
COPPER (ANNEALED)
 39
0
 10
45.455955
 20
32.719792
 30
0.000000
 70
0
 42
0
  0
VERTEX
  8
COPPER (ANNEALED)
 39
0
 10
44.241519
 20
33.015839
 30
0.000000
 70
0
 42
-0.137428
  0
VERTEX
  8
COPPER (ANNEALED)
 39
0
 10
40.909545
 20
27.090455
 30
0.000000
 70
0
 42
-0.137428
  0
VERTEX
  8
COPPER (ANNEALED)
 39
0
 10
34.984161
 20
23.758481
 30
0.000000
 70
0
 42
0
  0
VERTEX
  8
COPPER (ANNEALED)
 39
0
 10
35.280208
 20
22.544045
 30
0.000000
 70
0
 42
0.0629147
  0
VERTEX
  8
COPPER (ANNEALED)
 39
0
 10
38.523515
 20
23.782543
 30
0.000000
 70
0
 42
0.0629147
  0
VERTEX
  8
COPPER (ANNEALED)
 39
0
 10
41.356924
 20
25.788709
 30
0.000000
 70
0
 42
0
  0
VERTEX
  8
COPPER (ANNEALED)
 39
0
 10
41.964956
 20
25.125159
 30
0.000000
 70
0
 42
-0.0733257
  0
VERTEX
  8
COPPER (ANNEALED)
 39
0
 10
38.402270
 20
22.711906
 30
0.000000
 70
0
 42
-0.0733257
  0
VERTEX
  8
COPPER (ANNEALED)
 39
0
 10
34.294694
 20
21.429589
 30
0.000000
 70
0
 42
0
  0
SEQEND
  8
COPPER (ANNEALED)
  0
POLYLINE
  8
COPPER (ANNEALED)
 66
1
 39
0
 10
0.000000
 20
0.000000
 30
0.000000
 70
1
  0
VERTEX
  8
COPPER (ANNEALED)
 39
0
 10
20.442454
 20
34.179802
 30
0.000000
 70
0
 42
0.158608
  0
VERTEX
  8
COPPER (ANNEALED)
 39
0
 10
23.726851
 20
27.726851
 30
0.000000
 70
0
 42
0.158608
  0
VERTEX
  8
COPPER (ANNEALED)
 39
0
 10
30.179802
 20
24.442454
 30
0.000000
 70
0
 42
0
  0
VERTEX
  8
COPPER (ANNEALED)
 39
0
 10
29.705306
 20
21.429589
 30
0.000000
 70
0
 42
-0.0733257
  0
VERTEX
  8
COPPER (ANNEALED)
 39
0
 10
25.597730
 20
22.711906
 30
0.000000
 70
0
 42
-0.0733257
  0
VERTEX
  8
COPPER (ANNEALED)
 39
0
 10
22.035044
 20
25.125159
 30
0.000000
 70
0
 42
0
  0
VERTEX
  8
COPPER (ANNEALED)
 39
0
 10
22.643076
 20
25.788709
 30
0.000000
 70
0
 42
0.0629147
  0
VERTEX
  8
COPPER (ANNEALED)
 39
0
 10
25.476485
 20
23.782543
 30
0.000000
 70
0
 42
0.0629147
  0
VERTEX
  8
COPPER (ANNEALED)
 39
0
 10
28.719792
 20
22.544045
 30
0.000000
 70
0
 42
0
  0
VERTEX
  8
COPPER (ANNEALED)
 39
0
 10
29.015839
 20
23.758481
 30
0.000000
 70
0
 42
-0.137428
  0
VERTEX
  8
COPPER (ANNEALED)
 39
0
 10
23.090455
 20
27.090455
 30
0.000000
 70
0
 42
-0.137428
  0
VERTEX
  8
COPPER (ANNEALED)
 39
0
 10
19.758481
 20
33.015839
 30
0.000000
 70
0
 42
0
  0
VERTEX
  8
COPPER (ANNEALED)
 39
0
 10
18.544045
 20
32.719792
 30
0.000000
 70
0
 42
0.0629147
  0
VERTEX
  8
COPPER (ANNEALED)
 39
0
 10
19.782543
 20
29.476485
 30
0.000000
 70
0
 42
0.0629147
  0
VERTEX
  8
COPPER (ANNEALED)
 39
0
 10
21.788709
 20
26.643076
 30
0.000000
 70
0
 42
0
  0
VERTEX
  8
COPPER (ANNEALED)
 39
0
 10
21.125159
 20
26.035044
 30
0.000000
 70
0
 42
-0.0733257
  0
VERTEX
  8
COPPER (ANNEALED)
 39
0
 10
18.711906
 20
29.597730
 30
0.000000
 70
0
 42
-0.0733257
  0
VERTEX
  8
COPPER (ANNEALED)
 39
0
 10
17.429589
 20
33.705306
 30
0.000000
 70
0
 42
0
  0
SEQEND
  8
COPPER (ANNEALED)
  0
POLYLINE
  8
ROGERS RO3003 (LOSSY)
 66
1
 39
0
 10
0.000000
 20
0.000000
 30
0.000000
 70
1
  0
VERTEX
  8
ROGERS RO3003 (LOSSY)
 39
0
 10
0.000000
 20
0.000000
 30
0.000000
 70
0
 42
0
  0
VERTEX
  8
ROGERS RO3003 (LOSSY)
 39
0
 10
64.000000
 20
0.000000
 30
0.000000
 70
0
 42
0
  0
VERTEX
  8
ROGERS RO3003 (LOSSY)
 39
0
 10
64.000000
 20
62.000000
 30
0.000000
 70
0
 42
0
  0
VERTEX
  8
ROGERS RO3003 (LOSSY)
 39
0
 10
0.000000
 20
62.000000
 30
0.000000
 70
0
 42
0
  0
SEQEND
  8
ROGERS RO3003 (LOSSY)
  0
ENDSEC
  0
EOF
