G04*
G04 #@! TF.GenerationSoftware,Altium Limited,Altium Designer,20.0.11 (256)*
G04*
G04 Layer_Color=128*
%FSLAX44Y44*%
%MOMM*%
G71*
G01*
G75*
%ADD12C,0.1270*%
G36*
X238363Y195100D02*
X228164D01*
X202663Y220600D01*
Y230800D01*
X238363D01*
Y195100D01*
D02*
G37*
G36*
X192463Y220600D02*
X166964Y195100D01*
X156763D01*
Y230800D01*
X192463D01*
Y220600D01*
D02*
G37*
G36*
X217964Y195100D02*
Y184900D01*
X202663Y169600D01*
X192463D01*
X177164Y184900D01*
Y195100D01*
X192463Y210400D01*
X202663D01*
X217964Y195100D01*
D02*
G37*
G36*
X238363Y149200D02*
X202663D01*
Y159400D01*
X228164Y184900D01*
X238363D01*
Y149200D01*
D02*
G37*
G36*
X192463Y159400D02*
Y149200D01*
X156763D01*
Y184900D01*
X166964D01*
X192463Y159400D01*
D02*
G37*
G36*
X483363Y195100D02*
X473163D01*
X447663Y220600D01*
Y230800D01*
X483363D01*
Y195100D01*
D02*
G37*
G36*
X437463Y220600D02*
X411964Y195100D01*
X401763D01*
Y230800D01*
X437463D01*
Y220600D01*
D02*
G37*
G36*
X462963Y195100D02*
Y184900D01*
X447663Y169600D01*
X437463D01*
X422164Y184900D01*
Y195100D01*
X437463Y210400D01*
X447663D01*
X462963Y195100D01*
D02*
G37*
G36*
X483363Y149200D02*
X447663D01*
Y159400D01*
X473163Y184900D01*
X483363D01*
Y149200D01*
D02*
G37*
G36*
X437463Y159400D02*
Y149200D01*
X401763D01*
Y184900D01*
X411964D01*
X437463Y159400D01*
D02*
G37*
D12*
X640000Y610000D02*
X640000Y0D01*
X0D02*
X640000D01*
X0Y610000D02*
X640000D01*
X-0D02*
X0Y0D01*
M02*
