G04*
G04 #@! TF.GenerationSoftware,Altium Limited,Altium Designer,20.0.11 (256)*
G04*
G04 Layer_Color=8388736*
%FSLAX44Y44*%
%MOMM*%
G71*
G01*
G75*
%ADD10R,64.0000X0.6925*%
%ADD11R,0.6925X61.0000*%
%ADD12C,0.1270*%
%ADD13C,3.8632*%
G36*
Y610000D02*
D01*
X640000D01*
D01*
X0D01*
D02*
G37*
G36*
X634821Y5179D02*
X5179D01*
X5179Y604821D01*
X634821D01*
X634821Y5179D01*
D02*
G37*
%LPC*%
G36*
X198351Y198010D02*
X196776D01*
X195230Y197703D01*
X193774Y197099D01*
X192464Y196224D01*
X191350Y195110D01*
X190474Y193799D01*
X189871Y192344D01*
X189564Y190798D01*
Y190010D01*
Y189222D01*
X189871Y187677D01*
X190474Y186221D01*
X191350Y184910D01*
X192464Y183796D01*
X193774Y182920D01*
X195230Y182317D01*
X196776Y182010D01*
X198351D01*
X199897Y182317D01*
X201353Y182920D01*
X202663Y183796D01*
X203778Y184910D01*
X204653Y186221D01*
X205256Y187677D01*
X205564Y189222D01*
Y190010D01*
Y190798D01*
X205256Y192344D01*
X204653Y193799D01*
X203778Y195110D01*
X202663Y196224D01*
X201353Y197099D01*
X199897Y197703D01*
X198351Y198010D01*
D02*
G37*
G36*
X443351Y197980D02*
X441776D01*
X440230Y197673D01*
X438774Y197069D01*
X437464Y196194D01*
X436349Y195080D01*
X435474Y193769D01*
X434871Y192313D01*
X434563Y190768D01*
Y189980D01*
Y189192D01*
X434871Y187647D01*
X435474Y186191D01*
X436349Y184880D01*
X437464Y183766D01*
X438774Y182890D01*
X440230Y182287D01*
X441776Y181980D01*
X443351D01*
X444897Y182287D01*
X446353Y182890D01*
X447663Y183766D01*
X448778Y184880D01*
X449653Y186191D01*
X450256Y187647D01*
X450564Y189192D01*
Y189980D01*
Y190768D01*
X450256Y192313D01*
X449653Y193769D01*
X448778Y195080D01*
X447663Y196194D01*
X446353Y197069D01*
X444897Y197673D01*
X443351Y197980D01*
D02*
G37*
%LPD*%
D10*
X320000Y3463D02*
D03*
Y606537D02*
D03*
D11*
X3526Y305000D02*
D03*
X636506D02*
D03*
D12*
X640000Y610000D02*
X640000Y0D01*
X0D02*
X640000D01*
X0Y610000D02*
X640000D01*
X-0D02*
X0Y0D01*
D13*
X40000Y490000D02*
D03*
X600000D02*
D03*
X320000Y40000D02*
D03*
M02*
