G04*
G04 #@! TF.GenerationSoftware,Altium Limited,Altium Designer,20.0.11 (256)*
G04*
G04 Layer_Physical_Order=1*
G04 Layer_Color=255*
%FSLAX44Y44*%
%MOMM*%
G71*
G01*
G75*
%ADD12C,0.1270*%
%ADD14C,3.6600*%
%ADD15C,1.4000*%
%ADD16C,1.3500*%
G36*
X285062Y384169D02*
X209921Y309029D01*
X209244Y308318D01*
X207999Y306801D01*
X206909Y305169D01*
X205984Y303438D01*
X205586Y302540D01*
X205586D01*
X205233Y301625D01*
X204663Y299746D01*
X204280Y297821D01*
X204088Y295868D01*
X204063Y294887D01*
Y184056D01*
X191063D01*
Y195556D01*
X185063D01*
Y205556D01*
X191063D01*
Y254056D01*
X131063D01*
Y265056D01*
X191063D01*
Y300272D01*
X191063Y301254D01*
X191256Y303210D01*
X191639Y305137D01*
X192210Y307017D01*
X192586Y307925D01*
X192962Y308833D01*
X193888Y310566D01*
X194980Y312200D01*
X196227Y313719D01*
X196921Y314414D01*
X275869Y393362D01*
X285062Y384169D01*
D02*
G37*
G36*
X443206Y314414D02*
X443900Y313719D01*
X445147Y312200D01*
X446239Y310566D01*
X447165Y308833D01*
X447541Y307925D01*
X447917Y307017D01*
X448488Y305137D01*
X448871Y303210D01*
X449063Y301254D01*
Y300272D01*
Y265056D01*
X509063D01*
Y254056D01*
X449063D01*
Y205556D01*
X455064D01*
Y195556D01*
X449063D01*
Y184056D01*
X436063D01*
Y294887D01*
X436039Y295868D01*
X435847Y297821D01*
X435464Y299746D01*
X434894Y301625D01*
X434541Y302540D01*
X434143Y303438D01*
X433218Y305169D01*
X432128Y306801D01*
X430882Y308318D01*
X430206Y309029D01*
Y309029D01*
X355065Y384169D01*
X364258Y393362D01*
X443206Y314414D01*
D02*
G37*
D12*
X640000Y610000D02*
X640000Y0D01*
X0D02*
X640000D01*
X0Y610000D02*
X640000D01*
X-0D02*
X0Y0D01*
D14*
X40000Y490000D02*
D03*
X600000D02*
D03*
X320000Y40000D02*
D03*
D15*
X467963Y215400D02*
D03*
Y164600D02*
D03*
X417164D02*
D03*
Y215400D02*
D03*
X222964D02*
D03*
Y164600D02*
D03*
X172164D02*
D03*
Y215400D02*
D03*
D16*
X442564Y190000D02*
D03*
X197563D02*
D03*
M02*
