G04*
G04 #@! TF.GenerationSoftware,Altium Limited,Altium Designer,20.0.14 (345)*
G04*
G04 Layer_Color=8388736*
%FSLAX44Y44*%
%MOMM*%
G71*
G01*
G75*
%ADD10C,1.0000*%
%ADD11R,64.0000X0.6925*%
%ADD12R,0.6925X61.0000*%
%ADD13C,0.1270*%
%ADD14C,3.8632*%
G36*
Y610000D02*
D01*
X640000D01*
D01*
X0D01*
D02*
G37*
G36*
X634821Y5179D02*
X5179D01*
X5179Y604821D01*
X634821D01*
X634821Y5179D01*
D02*
G37*
%LPC*%
G36*
X444306Y208000D02*
X440761D01*
X437283Y207308D01*
X434007Y205951D01*
X431059Y203981D01*
X428552Y201474D01*
X426582Y198526D01*
X425225Y195250D01*
X424534Y191773D01*
Y190000D01*
Y188227D01*
X425225Y184750D01*
X426582Y181474D01*
X428552Y178526D01*
X431059Y176019D01*
X434007Y174049D01*
X437283Y172692D01*
X440761Y172000D01*
X444306D01*
X447784Y172692D01*
X451060Y174049D01*
X454008Y176019D01*
X456515Y178526D01*
X458485Y181474D01*
X459842Y184750D01*
X460534Y188227D01*
Y190000D01*
Y191773D01*
X459842Y195250D01*
X458485Y198526D01*
X456515Y201474D01*
X454008Y203981D01*
X451060Y205951D01*
X447784Y207308D01*
X444306Y208000D01*
D02*
G37*
G36*
X199366D02*
X195820D01*
X192343Y207308D01*
X189067Y205951D01*
X186119Y203981D01*
X183612Y201474D01*
X181642Y198526D01*
X180285Y195250D01*
X179593Y191773D01*
Y190000D01*
Y188227D01*
X180285Y184750D01*
X181642Y181474D01*
X183612Y178526D01*
X186119Y176019D01*
X189067Y174049D01*
X192343Y172692D01*
X195820Y172000D01*
X199366D01*
X202844Y172692D01*
X206119Y174049D01*
X209068Y176019D01*
X211575Y178526D01*
X213545Y181474D01*
X214902Y184750D01*
X215593Y188227D01*
Y190000D01*
Y191773D01*
X214902Y195250D01*
X213545Y198526D01*
X211575Y201474D01*
X209068Y203981D01*
X206119Y205951D01*
X202844Y207308D01*
X199366Y208000D01*
D02*
G37*
%LPD*%
D10*
X445034Y190000D02*
G03*
X445034Y190000I-2500J0D01*
G01*
X200093D02*
G03*
X200093Y190000I-2500J0D01*
G01*
D11*
X320000Y3463D02*
D03*
Y606537D02*
D03*
D12*
X3526Y305000D02*
D03*
X636506D02*
D03*
D13*
X640000Y610000D02*
X640000Y0D01*
X0D02*
X640000D01*
X0Y610000D02*
X640000D01*
X-0D02*
X0Y0D01*
D14*
X40000Y490000D02*
D03*
X600000D02*
D03*
X320000Y40000D02*
D03*
M02*
