G04*
G04 #@! TF.GenerationSoftware,Altium Limited,Altium Designer,20.0.11 (256)*
G04*
G04 Layer_Physical_Order=1*
G04 Layer_Color=255*
%FSLAX44Y44*%
%MOMM*%
G71*
G01*
G75*
%ADD10C,0.1270*%
%ADD11C,3.6600*%
%ADD12C,1.5000*%
G36*
X338115Y581414D02*
X350067Y579521D01*
X361834Y576696D01*
X373343Y572956D01*
X384523Y568325D01*
X395306Y562831D01*
X405624Y556509D01*
X415414Y549396D01*
X424616Y541536D01*
X433173Y532979D01*
X441032Y523778D01*
X448145Y513987D01*
X454468Y503669D01*
X459962Y492887D01*
X464593Y481707D01*
X468332Y470198D01*
X471157Y458431D01*
X473050Y446478D01*
X474000Y434414D01*
Y428363D01*
Y422313D01*
X473050Y410249D01*
X471157Y398296D01*
X468332Y386529D01*
X464593Y375020D01*
X459962Y363840D01*
X454468Y353058D01*
X448145Y342740D01*
X441032Y332949D01*
X433173Y323747D01*
X424616Y315191D01*
X415414Y307331D01*
X405624Y300218D01*
X395306Y293895D01*
X384523Y288402D01*
X373343Y283771D01*
X361834Y280031D01*
X350067Y277206D01*
X338115Y275313D01*
X326051Y274363D01*
X320000Y274363D01*
X313949D01*
X301885Y275313D01*
X289933Y277206D01*
X278166Y280031D01*
X266657Y283771D01*
X255477Y288402D01*
X244694Y293895D01*
X234376Y300218D01*
X224586Y307331D01*
X215384Y315191D01*
X206827Y323747D01*
X198968Y332949D01*
X191855Y342740D01*
X185532Y353058D01*
X180038Y363840D01*
X175407Y375020D01*
X171667Y386529D01*
X168843Y398296D01*
X166950Y410249D01*
X166000Y422313D01*
X166000Y428363D01*
Y434414D01*
X166950Y446478D01*
X168843Y458431D01*
X171667Y470198D01*
X175407Y481707D01*
X180038Y492887D01*
X185532Y503669D01*
X191855Y513987D01*
X198968Y523778D01*
X206827Y532979D01*
X215384Y541536D01*
X224586Y549396D01*
X234376Y556509D01*
X244694Y562831D01*
X255477Y568325D01*
X266657Y572956D01*
X278166Y576696D01*
X289933Y579521D01*
X301885Y581414D01*
X313949Y582364D01*
X326051D01*
X338115Y581414D01*
D02*
G37*
%LPC*%
G36*
X336085Y573482D02*
X333341Y548633D01*
X338405Y547965D01*
X348426Y545993D01*
X358245Y543182D01*
X367791Y539553D01*
X376998Y535132D01*
X385799Y529950D01*
X394131Y524045D01*
X401936Y517458D01*
X405623Y513923D01*
X409158Y510236D01*
X415745Y502431D01*
X421650Y494099D01*
X426832Y485298D01*
X431253Y476091D01*
X434882Y466544D01*
X437692Y456726D01*
X439665Y446705D01*
X440333Y441641D01*
Y441641D01*
X465182Y444385D01*
X464539Y450205D01*
X462326Y461706D01*
X459198Y472993D01*
X455177Y483993D01*
X452732Y489314D01*
X450288Y494636D01*
X444562Y504852D01*
X438036Y514578D01*
X430752Y523749D01*
X426754Y528028D01*
X420177Y521885D01*
X423473Y518227D01*
X429661Y510567D01*
X435282Y502483D01*
X440308Y494016D01*
X442589Y489653D01*
X444713Y485210D01*
X448474Y476111D01*
X451572Y466765D01*
X453990Y457220D01*
X454940Y452389D01*
X454940D01*
X448049Y451161D01*
X447181Y456036D01*
X444707Y465625D01*
X441512Y474998D01*
X437613Y484101D01*
X433032Y492881D01*
X427797Y501288D01*
X421938Y509271D01*
X415489Y516786D01*
X411987Y520287D01*
X408486Y523789D01*
X400971Y530238D01*
X392988Y536097D01*
X384581Y541332D01*
X375801Y545913D01*
X366698Y549812D01*
X357325Y553007D01*
X347736Y555481D01*
X342861Y556349D01*
X342861D01*
X344089Y563240D01*
X348920Y562290D01*
X358465Y559871D01*
X367811Y556774D01*
X376910Y553013D01*
X381353Y550889D01*
Y550889D01*
X385716Y548608D01*
X394183Y543582D01*
X402267Y537961D01*
X409927Y531773D01*
X413585Y528477D01*
X413585D01*
X419728Y535054D01*
X415449Y539052D01*
X406278Y546336D01*
X396552Y552862D01*
X386335Y558588D01*
X381014Y561032D01*
X375693Y563477D01*
X364693Y567498D01*
X353406Y570626D01*
X341905Y572839D01*
X336085Y573482D01*
D02*
G37*
G36*
X304042D02*
X304042D01*
X298222Y572839D01*
X286721Y570626D01*
X275434Y567498D01*
X264434Y563477D01*
X259113Y561032D01*
X253792Y558588D01*
X243575Y552862D01*
X233849Y546336D01*
X224678Y539052D01*
X220399Y535054D01*
X226542Y528477D01*
X230200Y531773D01*
X237860Y537961D01*
X245944Y543582D01*
X254410Y548608D01*
X258774Y550889D01*
Y550889D01*
X263216Y553013D01*
X272316Y556774D01*
X281662Y559871D01*
X291207Y562290D01*
X296038Y563240D01*
X297266Y556349D01*
X292391Y555481D01*
X282802Y553007D01*
X273429Y549812D01*
X264326Y545913D01*
X255546Y541332D01*
X247139Y536097D01*
X239156Y530238D01*
X231641Y523789D01*
X228140Y520287D01*
X228140Y520287D01*
X224638Y516786D01*
X218189Y509271D01*
X212330Y501288D01*
X207095Y492881D01*
X202514Y484101D01*
X198615Y474998D01*
X195420Y465625D01*
X192946Y456036D01*
X192078Y451161D01*
X185187Y452389D01*
X186137Y457220D01*
X188556Y466765D01*
X191653Y476111D01*
X195414Y485210D01*
X197538Y489653D01*
X197538D01*
X199819Y494016D01*
X204845Y502483D01*
X210466Y510567D01*
X216654Y518227D01*
X219950Y521885D01*
X213373Y528028D01*
X213373D01*
X209375Y523749D01*
X202091Y514578D01*
X195565Y504852D01*
X189839Y494636D01*
X187395Y489314D01*
X184950Y483993D01*
X180929Y472993D01*
X177801Y461706D01*
X175588Y450205D01*
X174945Y444385D01*
X199794Y441641D01*
Y441641D01*
X199794Y441641D01*
X199794D01*
X200462Y446705D01*
X202435Y456726D01*
X205245Y466544D01*
X208874Y476091D01*
X213295Y485298D01*
X218477Y494099D01*
X224382Y502431D01*
X230969Y510236D01*
X234504Y513923D01*
X238191Y517458D01*
X245996Y524045D01*
X254328Y529950D01*
X263129Y535132D01*
X272336Y539553D01*
X281882Y543182D01*
X291701Y545993D01*
X301722Y547965D01*
X306786Y548633D01*
X304042Y573482D01*
D02*
G37*
G36*
X199794Y415086D02*
X199794D01*
D01*
X199794D01*
D02*
G37*
G36*
X440333D02*
X439665Y410022D01*
X437692Y400001D01*
X434882Y390182D01*
X431253Y380636D01*
X426832Y371429D01*
X421650Y362628D01*
X415745Y354296D01*
X409158Y346491D01*
X405623Y342804D01*
X401936Y339269D01*
X394131Y332682D01*
X385799Y326777D01*
X376998Y321595D01*
X367791Y317174D01*
X358245Y313545D01*
X348426Y310735D01*
X338405Y308762D01*
X333341Y308094D01*
Y308094D01*
X333341Y308094D01*
X333341D01*
X336085Y283245D01*
X341905Y283888D01*
X353406Y286101D01*
X364693Y289229D01*
X375693Y293250D01*
X381014Y295695D01*
X386335Y298139D01*
X396552Y303865D01*
X406278Y310391D01*
X415449Y317675D01*
X419728Y321673D01*
Y321673D01*
X413585Y328250D01*
X409927Y324954D01*
X402267Y318766D01*
X394183Y313145D01*
X385716Y308119D01*
X381353Y305838D01*
X376911Y303714D01*
X367811Y299953D01*
X358465Y296856D01*
X348920Y294437D01*
X344089Y293486D01*
X342861Y300378D01*
X347736Y301246D01*
X357325Y303720D01*
X366698Y306915D01*
X375801Y310814D01*
X384581Y315395D01*
X392988Y320630D01*
X400971Y326489D01*
X408486Y332938D01*
X411987Y336440D01*
X411987Y336440D01*
X415489Y339941D01*
X421938Y347456D01*
X427797Y355439D01*
X433032Y363845D01*
X437613Y372626D01*
X441512Y381729D01*
X444707Y391102D01*
X447181Y400691D01*
X448049Y405566D01*
X454940Y404338D01*
X453990Y399507D01*
X451572Y389962D01*
X448474Y380616D01*
X444713Y371516D01*
X442589Y367074D01*
X442589Y367074D01*
X440308Y362710D01*
X435282Y354244D01*
X429661Y346160D01*
X423473Y338500D01*
X420177Y334842D01*
X426754Y328699D01*
X430752Y332978D01*
X438036Y342149D01*
X444562Y351875D01*
X450288Y362091D01*
X452732Y367413D01*
X455177Y372734D01*
X459198Y383734D01*
X462326Y395021D01*
X464539Y406522D01*
X465182Y412342D01*
Y412342D01*
X440333Y415086D01*
D02*
G37*
G36*
X199794D02*
X174945Y412342D01*
X175588Y406522D01*
X177801Y395021D01*
X180929Y383734D01*
X184950Y372734D01*
X187395Y367413D01*
X189839Y362091D01*
X195565Y351875D01*
X202091Y342149D01*
X209375Y332978D01*
X213373Y328699D01*
X213373Y328699D01*
X219950Y334842D01*
X216654Y338500D01*
X210466Y346160D01*
X204845Y354244D01*
X199819Y362710D01*
X197538Y367074D01*
X197538D01*
X195414Y371516D01*
X191653Y380616D01*
X188556Y389962D01*
X186137Y399507D01*
X185187Y404338D01*
X192078Y405566D01*
X192946Y400691D01*
X195420Y391102D01*
X198615Y381729D01*
X202514Y372626D01*
X207095Y363845D01*
X212330Y355439D01*
X218189Y347456D01*
X224638Y339941D01*
X228140Y336440D01*
X231641Y332938D01*
X239156Y326489D01*
X247139Y320630D01*
X255546Y315395D01*
X264326Y310814D01*
X273429Y306915D01*
X282802Y303720D01*
X292391Y301246D01*
X297266Y300378D01*
X296038Y293486D01*
X291207Y294437D01*
X281662Y296856D01*
X272316Y299953D01*
X263216Y303714D01*
X258774Y305838D01*
X254410Y308119D01*
X245944Y313145D01*
X237860Y318766D01*
X230200Y324954D01*
X226542Y328250D01*
D01*
X226542D01*
X226542D01*
X220399Y321673D01*
X224678Y317675D01*
X233849Y310391D01*
X243575Y303865D01*
X253792Y298139D01*
X259113Y295695D01*
X264434Y293250D01*
X275434Y289229D01*
X286721Y286101D01*
X298222Y283888D01*
X304042Y283245D01*
X304042Y283245D01*
X306786Y308094D01*
X301722Y308762D01*
X291701Y310735D01*
X281882Y313545D01*
X272336Y317174D01*
X263129Y321595D01*
X254328Y326777D01*
X245996Y332682D01*
X238191Y339269D01*
X234504Y342803D01*
X230969Y346491D01*
X224382Y354296D01*
X218477Y362628D01*
X213295Y371429D01*
X208874Y380636D01*
X205245Y390182D01*
X202435Y400001D01*
X200462Y410022D01*
X199794Y415086D01*
D02*
G37*
%LPD*%
D10*
X640000Y610000D02*
X640000Y0D01*
X0D02*
X640000D01*
X0Y610000D02*
X640000D01*
X-0D02*
X0Y0D01*
D11*
X320000Y40000D02*
D03*
X600000Y490000D02*
D03*
X40000D02*
D03*
D12*
X197563Y190000D02*
D03*
X442564D02*
D03*
M02*
