G04*
G04 #@! TF.GenerationSoftware,Altium Limited,Altium Designer,19.1.8 (144)*
G04*
G04 Layer_Color=128*
%FSLAX25Y25*%
%MOIN*%
G70*
G01*
G75*
%ADD10C,0.00500*%
G36*
X93844Y80748D02*
X89828D01*
X79789Y90787D01*
Y94803D01*
X93844D01*
Y80748D01*
D02*
G37*
G36*
X75773Y90787D02*
X65734Y80748D01*
X61718D01*
Y94803D01*
X75773D01*
Y90787D01*
D02*
G37*
G36*
X85812Y80748D02*
Y76732D01*
X79789Y70709D01*
X75773D01*
X69749Y76732D01*
Y80748D01*
X75773Y86772D01*
X79789D01*
X85812Y80748D01*
D02*
G37*
G36*
X93844Y62677D02*
X79789D01*
Y66693D01*
X89828Y76732D01*
X93844D01*
Y62677D01*
D02*
G37*
G36*
X75773Y66693D02*
Y62677D01*
X61718D01*
Y76732D01*
X65734D01*
X75773Y66693D01*
D02*
G37*
G36*
X190301Y80748D02*
X186285D01*
X176245Y90787D01*
Y94803D01*
X190301D01*
Y80748D01*
D02*
G37*
G36*
X172230Y90787D02*
X162190Y80748D01*
X158175D01*
Y94803D01*
X172230D01*
Y90787D01*
D02*
G37*
G36*
X182269Y80748D02*
Y76732D01*
X176245Y70709D01*
X172230D01*
X166206Y76732D01*
Y80748D01*
X172230Y86772D01*
X176245D01*
X182269Y80748D01*
D02*
G37*
G36*
X190301Y62677D02*
X176245D01*
Y66693D01*
X186285Y76732D01*
X190301D01*
Y62677D01*
D02*
G37*
G36*
X172230Y66693D02*
Y62677D01*
X158175D01*
Y76732D01*
X162190D01*
X172230Y66693D01*
D02*
G37*
D10*
X251969Y0D02*
Y244094D01*
X0Y0D02*
X251969D01*
X0Y244094D02*
X251969D01*
X0Y0D02*
Y244094D01*
M02*
