G04*
G04 #@! TF.GenerationSoftware,Altium Limited,Altium Designer,19.1.8 (144)*
G04*
G04 Layer_Physical_Order=3*
G04 Layer_Color=16711680*
%FSLAX25Y25*%
%MOIN*%
G70*
G01*
G75*
%ADD10C,0.00500*%
%ADD14C,0.05512*%
%ADD15C,0.04724*%
G36*
X249954Y2064D02*
X2064D01*
Y242080D01*
X249954D01*
Y2064D01*
D02*
G37*
%LPC*%
G36*
X174238Y82131D02*
X173360Y82016D01*
X172542Y81677D01*
X171840Y81138D01*
X171301Y80436D01*
X170962Y79618D01*
X170846Y78740D01*
X170962Y77863D01*
X171301Y77045D01*
X171840Y76342D01*
X172542Y75803D01*
X173360Y75464D01*
X174238Y75349D01*
X175115Y75464D01*
X175933Y75803D01*
X176636Y76342D01*
X177174Y77045D01*
X177513Y77863D01*
X177629Y78740D01*
X177513Y79618D01*
X177174Y80436D01*
X176636Y81138D01*
X175933Y81677D01*
X175115Y82016D01*
X174238Y82131D01*
D02*
G37*
G36*
X77781D02*
X76903Y82016D01*
X76085Y81677D01*
X75383Y81138D01*
X74844Y80436D01*
X74505Y79618D01*
X74390Y78740D01*
X74505Y77863D01*
X74844Y77045D01*
X75383Y76342D01*
X76085Y75803D01*
X76903Y75464D01*
X77781Y75349D01*
X78659Y75464D01*
X79476Y75803D01*
X80179Y76342D01*
X80718Y77045D01*
X81057Y77863D01*
X81172Y78740D01*
X81057Y79618D01*
X80718Y80436D01*
X80179Y81138D01*
X79476Y81677D01*
X78659Y82016D01*
X77781Y82131D01*
D02*
G37*
%LPD*%
D10*
X251969Y0D02*
Y244094D01*
X0Y0D02*
X251969D01*
X0Y244094D02*
X251969D01*
X0Y0D02*
Y244094D01*
D14*
X184238Y88740D02*
D03*
Y68740D02*
D03*
X164238D02*
D03*
Y88740D02*
D03*
X87781D02*
D03*
Y68740D02*
D03*
X67781D02*
D03*
Y88740D02*
D03*
D15*
X174238Y78740D02*
D03*
X77781D02*
D03*
M02*
