G04*
G04 #@! TF.GenerationSoftware,Altium Limited,Altium Designer,19.1.8 (144)*
G04*
G04 Layer_Physical_Order=1*
G04 Layer_Color=255*
%FSLAX25Y25*%
%MOIN*%
G70*
G01*
G75*
%ADD10C,0.00500*%
%ADD14C,0.05512*%
%ADD15C,0.04724*%
G36*
X133116Y232840D02*
X137822Y232095D01*
X142454Y230983D01*
X146985Y229510D01*
X151387Y227687D01*
X155632Y225524D01*
X159694Y223035D01*
X163549Y220234D01*
X167172Y217140D01*
X170540Y213771D01*
X173635Y210149D01*
X176435Y206294D01*
X178924Y202232D01*
X181087Y197987D01*
X182911Y193585D01*
X184383Y189054D01*
X185495Y184422D01*
X186240Y179716D01*
X186614Y174966D01*
Y172584D01*
Y170202D01*
X186240Y165452D01*
X185495Y160747D01*
X184383Y156114D01*
X182911Y151583D01*
X181087Y147181D01*
X178924Y142936D01*
X176435Y138874D01*
X173635Y135020D01*
X170540Y131397D01*
X167172Y128028D01*
X163549Y124934D01*
X159694Y122133D01*
X155632Y119644D01*
X151387Y117481D01*
X146985Y115658D01*
X142454Y114185D01*
X137822Y113073D01*
X133116Y112328D01*
X128366Y111954D01*
X125984Y111954D01*
X123602D01*
X118852Y112328D01*
X114147Y113073D01*
X109514Y114185D01*
X104983Y115658D01*
X100581Y117481D01*
X96336Y119644D01*
X92274Y122133D01*
X88420Y124934D01*
X84797Y128028D01*
X81428Y131397D01*
X78334Y135020D01*
X75533Y138874D01*
X73044Y142936D01*
X70881Y147181D01*
X69058Y151583D01*
X67586Y156114D01*
X66473Y160747D01*
X65728Y165452D01*
X65354Y170202D01*
X65354Y172584D01*
Y174966D01*
X65728Y179716D01*
X66473Y184422D01*
X67586Y189054D01*
X69058Y193585D01*
X70881Y197987D01*
X73044Y202232D01*
X75533Y206294D01*
X78334Y210149D01*
X81428Y213771D01*
X84797Y217140D01*
X88420Y220234D01*
X92274Y223035D01*
X96336Y225524D01*
X100581Y227687D01*
X104983Y229510D01*
X109514Y230983D01*
X114147Y232095D01*
X118852Y232840D01*
X123602Y233214D01*
X128366D01*
X133116Y232840D01*
D02*
G37*
%LPC*%
G36*
X132317Y229717D02*
X131237Y219934D01*
X133230Y219671D01*
X137176Y218895D01*
X141041Y217788D01*
X144800Y216359D01*
X148424Y214619D01*
X151889Y212579D01*
X155170Y210254D01*
X158243Y207661D01*
X159694Y206269D01*
X161086Y204818D01*
X163679Y201745D01*
X166004Y198464D01*
X168044Y194999D01*
X169785Y191375D01*
X171213Y187616D01*
X172320Y183750D01*
X173097Y179805D01*
X173359Y177812D01*
Y177812D01*
X183142Y178892D01*
X182889Y181183D01*
X182018Y185711D01*
X180787Y190155D01*
X179203Y194485D01*
X178241Y196580D01*
X177279Y198675D01*
X175024Y202698D01*
X172455Y206527D01*
X169587Y210137D01*
X168014Y211822D01*
X165424Y209403D01*
X166722Y207963D01*
X169158Y204948D01*
X171371Y201765D01*
X173349Y198432D01*
X174248Y196714D01*
X175084Y194965D01*
X176565Y191382D01*
X177784Y187703D01*
X178736Y183945D01*
X179110Y182043D01*
X179110D01*
X176397Y181560D01*
X176055Y183479D01*
X175082Y187254D01*
X173824Y190944D01*
X172288Y194528D01*
X170485Y197985D01*
X168424Y201294D01*
X166117Y204437D01*
X163578Y207396D01*
X162200Y208774D01*
X160821Y210153D01*
X157863Y212692D01*
X154719Y214999D01*
X151410Y217060D01*
X147953Y218863D01*
X144369Y220398D01*
X140679Y221656D01*
X136904Y222630D01*
X134985Y222972D01*
X134985D01*
X135468Y225685D01*
X137370Y225311D01*
X141128Y224359D01*
X144807Y223139D01*
X148390Y221658D01*
X150139Y220823D01*
Y220823D01*
X151857Y219924D01*
X155190Y217946D01*
X158373Y215733D01*
X161388Y213297D01*
X162829Y211999D01*
X162829D01*
X165247Y214588D01*
X163563Y216162D01*
X159952Y219030D01*
X156123Y221599D01*
X152101Y223853D01*
X150006Y224816D01*
X147911Y225778D01*
X143580Y227361D01*
X139136Y228593D01*
X134608Y229464D01*
X132317Y229717D01*
D02*
G37*
G36*
X119702D02*
X119702D01*
X117410Y229464D01*
X112882Y228593D01*
X108439Y227361D01*
X104108Y225778D01*
X102013Y224816D01*
X99918Y223853D01*
X95896Y221599D01*
X92067Y219030D01*
X88456Y216162D01*
X86771Y214588D01*
X89190Y211999D01*
X90630Y213297D01*
X93646Y215733D01*
X96828Y217946D01*
X100162Y219924D01*
X101880Y220823D01*
Y220823D01*
X103629Y221658D01*
X107211Y223139D01*
X110891Y224359D01*
X114648Y225311D01*
X116551Y225685D01*
X117034Y222972D01*
X115115Y222630D01*
X111339Y221656D01*
X107649Y220398D01*
X104065Y218863D01*
X100609Y217060D01*
X97299Y214999D01*
X94156Y212692D01*
X91197Y210153D01*
X89819Y208774D01*
X89819Y208774D01*
X88440Y207396D01*
X85901Y204437D01*
X83594Y201294D01*
X81533Y197985D01*
X79730Y194528D01*
X78195Y190944D01*
X76937Y187254D01*
X75963Y183479D01*
X75621Y181560D01*
X72908Y182043D01*
X73282Y183945D01*
X74234Y187703D01*
X75454Y191382D01*
X76935Y194965D01*
X77771Y196714D01*
X77771D01*
X78669Y198432D01*
X80648Y201765D01*
X82861Y204948D01*
X85297Y207963D01*
X86594Y209403D01*
X84005Y211822D01*
X84005D01*
X82431Y210137D01*
X79563Y206527D01*
X76994Y202698D01*
X74740Y198675D01*
X73777Y196580D01*
X72815Y194485D01*
X71232Y190155D01*
X70000Y185711D01*
X69129Y181183D01*
X68876Y178892D01*
X78659Y177812D01*
Y177812D01*
X78659Y177812D01*
X78659D01*
X78922Y179805D01*
X79699Y183750D01*
X80805Y187616D01*
X82234Y191375D01*
X83974Y194999D01*
X86014Y198464D01*
X88339Y201745D01*
X90933Y204818D01*
X92324Y206269D01*
X93776Y207661D01*
X96849Y210254D01*
X100129Y212579D01*
X103594Y214619D01*
X107219Y216359D01*
X110977Y217788D01*
X114843Y218895D01*
X118788Y219671D01*
X120782Y219934D01*
X119702Y229717D01*
D02*
G37*
G36*
X78659Y167357D02*
X78659D01*
D01*
X78659D01*
D02*
G37*
G36*
X173359D02*
X173097Y165363D01*
X172320Y161418D01*
X171213Y157552D01*
X169785Y153794D01*
X168044Y150169D01*
X166004Y146704D01*
X163679Y143423D01*
X161086Y140351D01*
X159694Y138899D01*
X158243Y137507D01*
X155170Y134914D01*
X151889Y132589D01*
X148424Y130549D01*
X144800Y128809D01*
X141041Y127380D01*
X137176Y126273D01*
X133230Y125497D01*
X131237Y125234D01*
Y125234D01*
X131237Y125234D01*
X131237D01*
X132317Y115451D01*
X134608Y115704D01*
X139136Y116575D01*
X143580Y117806D01*
X147911Y119390D01*
X150006Y120352D01*
X152101Y121315D01*
X156123Y123569D01*
X159952Y126138D01*
X163563Y129006D01*
X165247Y130580D01*
Y130580D01*
X162829Y133169D01*
X161388Y131871D01*
X158373Y129436D01*
X155190Y127223D01*
X151857Y125244D01*
X150139Y124346D01*
X148390Y123510D01*
X144807Y122029D01*
X141128Y120809D01*
X137370Y119857D01*
X135468Y119483D01*
X134985Y122196D01*
X136904Y122538D01*
X140679Y123512D01*
X144369Y124770D01*
X147953Y126305D01*
X151410Y128108D01*
X154719Y130169D01*
X157863Y132476D01*
X160821Y135015D01*
X162200Y136393D01*
X162200Y136394D01*
X163578Y137772D01*
X166117Y140731D01*
X168424Y143874D01*
X170485Y147183D01*
X172288Y150640D01*
X173824Y154224D01*
X175082Y157914D01*
X176055Y161689D01*
X176397Y163609D01*
X179110Y163125D01*
X178736Y161223D01*
X177784Y157466D01*
X176565Y153786D01*
X175084Y150203D01*
X174248Y148454D01*
X174248Y148454D01*
X173349Y146736D01*
X171371Y143403D01*
X169158Y140220D01*
X166722Y137205D01*
X165424Y135765D01*
X168014Y133346D01*
X169587Y135031D01*
X172455Y138642D01*
X175024Y142470D01*
X177279Y146493D01*
X178241Y148588D01*
X179203Y150683D01*
X180787Y155013D01*
X182018Y159457D01*
X182889Y163985D01*
X183142Y166277D01*
Y166277D01*
X173359Y167357D01*
D02*
G37*
G36*
X78659D02*
X68876Y166277D01*
X69129Y163985D01*
X70000Y159457D01*
X71232Y155013D01*
X72815Y150683D01*
X73777Y148588D01*
X74740Y146493D01*
X76994Y142470D01*
X79563Y138642D01*
X82431Y135031D01*
X84005Y133346D01*
X84005Y133346D01*
X86594Y135765D01*
X85297Y137205D01*
X82861Y140220D01*
X80648Y143403D01*
X78669Y146736D01*
X77771Y148454D01*
X77771D01*
X76935Y150203D01*
X75454Y153786D01*
X74234Y157466D01*
X73282Y161223D01*
X72908Y163125D01*
X75621Y163609D01*
X75963Y161689D01*
X76937Y157914D01*
X78195Y154224D01*
X79730Y150640D01*
X81533Y147183D01*
X83594Y143874D01*
X85901Y140731D01*
X88440Y137772D01*
X89819Y136394D01*
X91197Y135015D01*
X94156Y132476D01*
X97299Y130169D01*
X100609Y128108D01*
X104065Y126305D01*
X107649Y124770D01*
X111339Y123512D01*
X115115Y122538D01*
X117034Y122196D01*
X116551Y119483D01*
X114648Y119857D01*
X110891Y120809D01*
X107211Y122029D01*
X103629Y123510D01*
X101880Y124346D01*
X100162Y125244D01*
X96828Y127223D01*
X93646Y129436D01*
X90630Y131871D01*
X89190Y133169D01*
D01*
X89190D01*
X89190D01*
X86771Y130580D01*
X88456Y129006D01*
X92067Y126138D01*
X95896Y123569D01*
X99918Y121315D01*
X102013Y120352D01*
X104108Y119390D01*
X108439Y117806D01*
X112882Y116575D01*
X117410Y115704D01*
X119702Y115451D01*
X119702Y115451D01*
X120782Y125234D01*
X118788Y125497D01*
X114843Y126273D01*
X110977Y127380D01*
X107219Y128809D01*
X103594Y130549D01*
X100129Y132589D01*
X96849Y134914D01*
X93776Y137507D01*
X92324Y138899D01*
X90933Y140351D01*
X88339Y143423D01*
X86014Y146704D01*
X83974Y150169D01*
X82234Y153794D01*
X80805Y157552D01*
X79699Y161418D01*
X78922Y165363D01*
X78659Y167357D01*
D02*
G37*
%LPD*%
D10*
X251969Y0D02*
Y244094D01*
X0Y0D02*
X251969D01*
X0Y244094D02*
X251969D01*
X0Y0D02*
Y244094D01*
D14*
X184238Y88740D02*
D03*
Y68740D02*
D03*
X164238D02*
D03*
Y88740D02*
D03*
X87781D02*
D03*
Y68740D02*
D03*
X67781D02*
D03*
Y88740D02*
D03*
D15*
X174238Y78740D02*
D03*
X77781D02*
D03*
M02*
