  0
SECTION
  2
HEADER
  9
$ACADVER
  1
AC1009
  0
ENDSEC
  0
SECTION
  2
ENTITIES
  0
POLYLINE
  8
COPPER (ANNEALED)
 66
1
 39
0
 10
0.000000
 20
0.000000
 30
0.000000
 70
1
  0
VERTEX
  8
COPPER (ANNEALED)
 39
0
 10
0.508000
 20
0.508000
 30
0.000000
 70
0
 42
0
  0
VERTEX
  8
COPPER (ANNEALED)
 39
0
 10
63.492000
 20
0.508000
 30
0.000000
 70
0
 42
0
  0
VERTEX
  8
COPPER (ANNEALED)
 39
0
 10
63.492000
 20
61.492000
 30
0.000000
 70
0
 42
0
  0
VERTEX
  8
COPPER (ANNEALED)
 39
0
 10
0.508000
 20
61.492000
 30
0.000000
 70
0
 42
0
  0
SEQEND
  8
COPPER (ANNEALED)
  0
CIRCLE
  8
COPPER (ANNEALED)
 39
0
 10
44.250000
 20
20.000000
 30
0.000000
 40
1
  0
CIRCLE
  8
COPPER (ANNEALED)
 39
0
 10
19.750000
 20
20.000000
 30
0.000000
 40
1
  0
CIRCLE
  8
COPPER (ANNEALED)
 39
0
 10
46.795000
 20
22.545000
 30
0.000000
 40
0.7
  0
CIRCLE
  8
COPPER (ANNEALED)
 39
0
 10
41.705000
 20
22.545000
 30
0.000000
 40
0.7
  0
CIRCLE
  8
COPPER (ANNEALED)
 39
0
 10
46.795000
 20
17.455000
 30
0.000000
 40
0.7
  0
CIRCLE
  8
COPPER (ANNEALED)
 39
0
 10
41.705000
 20
17.455000
 30
0.000000
 40
0.7
  0
CIRCLE
  8
COPPER (ANNEALED)
 39
0
 10
17.205000
 20
22.545000
 30
0.000000
 40
0.7
  0
CIRCLE
  8
COPPER (ANNEALED)
 39
0
 10
22.295000
 20
22.545000
 30
0.000000
 40
0.7
  0
CIRCLE
  8
COPPER (ANNEALED)
 39
0
 10
17.205000
 20
17.455000
 30
0.000000
 40
0.7
  0
CIRCLE
  8
COPPER (ANNEALED)
 39
0
 10
22.295000
 20
17.455000
 30
0.000000
 40
0.7
  0
CIRCLE
  8
COPPER (ANNEALED)
 39
0
 10
44.250000
 20
20.000000
 30
0.000000
 40
0.45
  0
CIRCLE
  8
COPPER (ANNEALED)
 39
0
 10
44.250000
 20
20.000000
 30
0.000000
 40
0.4848
  0
CIRCLE
  8
COPPER (ANNEALED)
 39
0
 10
19.750000
 20
20.000000
 30
0.000000
 40
0.45
  0
CIRCLE
  8
COPPER (ANNEALED)
 39
0
 10
19.750000
 20
20.000000
 30
0.000000
 40
0.4848
  0
CIRCLE
  8
MCX_PLUG_THRU_2_GOLD
 39
0
 10
44.250000
 20
20.001721
 30
-0.000000
 40
0.45
  0
POLYLINE
  8
MCX_PLUG_THRU_2_GOLD
 66
1
 39
0
 10
0.000000
 20
0.000000
 30
0.000000
 70
1
  0
VERTEX
  8
MCX_PLUG_THRU_2_GOLD
 39
0
 10
45.850000
 20
17.001721
 30
0.000000
 70
0
 42
0
  0
VERTEX
  8
MCX_PLUG_THRU_2_GOLD
 39
0
 10
46.895751
 20
17.001721
 30
0.000000
 70
0
 42
0.0156673
  0
VERTEX
  8
MCX_PLUG_THRU_2_GOLD
 39
0
 10
47.078427
 20
17.173294
 30
0.000000
 70
0
 42
0.0156673
  0
VERTEX
  8
MCX_PLUG_THRU_2_GOLD
 39
0
 10
47.250000
 20
17.355970
 30
0.000000
 70
0
 42
0
  0
VERTEX
  8
MCX_PLUG_THRU_2_GOLD
 39
0
 10
47.250000
 20
18.401721
 30
0.000000
 70
0
 42
0
  0
VERTEX
  8
MCX_PLUG_THRU_2_GOLD
 39
0
 10
45.850000
 20
18.401721
 30
0.000000
 70
0
 42
0
  0
SEQEND
  8
MCX_PLUG_THRU_2_GOLD
  0
POLYLINE
  8
MCX_PLUG_THRU_2_GOLD
 66
1
 39
0
 10
0.000000
 20
0.000000
 30
0.000000
 70
1
  0
VERTEX
  8
MCX_PLUG_THRU_2_GOLD
 39
0
 10
41.250000
 20
18.401721
 30
0.000000
 70
0
 42
0
  0
VERTEX
  8
MCX_PLUG_THRU_2_GOLD
 39
0
 10
41.250000
 20
17.355970
 30
0.000000
 70
0
 42
0.0156673
  0
VERTEX
  8
MCX_PLUG_THRU_2_GOLD
 39
0
 10
41.421573
 20
17.173294
 30
0.000000
 70
0
 42
0.0156673
  0
VERTEX
  8
MCX_PLUG_THRU_2_GOLD
 39
0
 10
41.604249
 20
17.001721
 30
0.000000
 70
0
 42
0
  0
VERTEX
  8
MCX_PLUG_THRU_2_GOLD
 39
0
 10
42.650000
 20
17.001721
 30
0.000000
 70
0
 42
0
  0
VERTEX
  8
MCX_PLUG_THRU_2_GOLD
 39
0
 10
42.650000
 20
18.401721
 30
0.000000
 70
0
 42
0
  0
SEQEND
  8
MCX_PLUG_THRU_2_GOLD
  0
POLYLINE
  8
MCX_PLUG_THRU_2_GOLD
 66
1
 39
0
 10
0.000000
 20
0.000000
 30
0.000000
 70
1
  0
VERTEX
  8
MCX_PLUG_THRU_2_GOLD
 39
0
 10
47.250000
 20
21.601721
 30
0.000000
 70
0
 42
0
  0
VERTEX
  8
MCX_PLUG_THRU_2_GOLD
 39
0
 10
47.250000
 20
22.647473
 30
0.000000
 70
0
 42
0.0156673
  0
VERTEX
  8
MCX_PLUG_THRU_2_GOLD
 39
0
 10
47.078427
 20
22.830148
 30
0.000000
 70
0
 42
0.0156673
  0
VERTEX
  8
MCX_PLUG_THRU_2_GOLD
 39
0
 10
46.895751
 20
23.001721
 30
0.000000
 70
0
 42
0
  0
VERTEX
  8
MCX_PLUG_THRU_2_GOLD
 39
0
 10
45.850000
 20
23.001721
 30
0.000000
 70
0
 42
0
  0
VERTEX
  8
MCX_PLUG_THRU_2_GOLD
 39
0
 10
45.850000
 20
21.601721
 30
0.000000
 70
0
 42
0
  0
SEQEND
  8
MCX_PLUG_THRU_2_GOLD
  0
POLYLINE
  8
MCX_PLUG_THRU_2_GOLD
 66
1
 39
0
 10
0.000000
 20
0.000000
 30
0.000000
 70
1
  0
VERTEX
  8
MCX_PLUG_THRU_2_GOLD
 39
0
 10
42.650000
 20
23.001721
 30
0.000000
 70
0
 42
0
  0
VERTEX
  8
MCX_PLUG_THRU_2_GOLD
 39
0
 10
41.604249
 20
23.001721
 30
0.000000
 70
0
 42
0.0156673
  0
VERTEX
  8
MCX_PLUG_THRU_2_GOLD
 39
0
 10
41.421573
 20
22.830148
 30
0.000000
 70
0
 42
0.0156673
  0
VERTEX
  8
MCX_PLUG_THRU_2_GOLD
 39
0
 10
41.250000
 20
22.647473
 30
0.000000
 70
0
 42
0
  0
VERTEX
  8
MCX_PLUG_THRU_2_GOLD
 39
0
 10
41.250000
 20
21.601721
 30
0.000000
 70
0
 42
0
  0
VERTEX
  8
MCX_PLUG_THRU_2_GOLD
 39
0
 10
42.650000
 20
21.601721
 30
0.000000
 70
0
 42
0
  0
SEQEND
  8
MCX_PLUG_THRU_2_GOLD
  0
CIRCLE
  8
COPPER (ANNEALED)
 39
0
 10
46.795000
 20
17.455000
 30
0.000000
 40
0.6652
  0
CIRCLE
  8
COPPER (ANNEALED)
 39
0
 10
46.795000
 20
17.455000
 30
0.000000
 40
0.7
  0
CIRCLE
  8
COPPER (ANNEALED)
 39
0
 10
41.705000
 20
17.455000
 30
0.000000
 40
0.6652
  0
CIRCLE
  8
COPPER (ANNEALED)
 39
0
 10
41.705000
 20
17.455000
 30
0.000000
 40
0.7
  0
CIRCLE
  8
COPPER (ANNEALED)
 39
0
 10
17.205000
 20
17.455000
 30
0.000000
 40
0.6652
  0
CIRCLE
  8
COPPER (ANNEALED)
 39
0
 10
17.205000
 20
17.455000
 30
0.000000
 40
0.7
  0
CIRCLE
  8
COPPER (ANNEALED)
 39
0
 10
22.295000
 20
17.455000
 30
0.000000
 40
0.6652
  0
CIRCLE
  8
COPPER (ANNEALED)
 39
0
 10
22.295000
 20
17.455000
 30
0.000000
 40
0.7
  0
CIRCLE
  8
MCX_PLUG_THRU_2_GOLD
 39
0
 10
19.750000
 20
20.001721
 30
-0.000000
 40
0.45
  0
POLYLINE
  8
MCX_PLUG_THRU_2_GOLD
 66
1
 39
0
 10
0.000000
 20
0.000000
 30
0.000000
 70
1
  0
VERTEX
  8
MCX_PLUG_THRU_2_GOLD
 39
0
 10
21.350000
 20
17.001721
 30
0.000000
 70
0
 42
0
  0
VERTEX
  8
MCX_PLUG_THRU_2_GOLD
 39
0
 10
22.395751
 20
17.001721
 30
0.000000
 70
0
 42
0.0156673
  0
VERTEX
  8
MCX_PLUG_THRU_2_GOLD
 39
0
 10
22.578427
 20
17.173294
 30
0.000000
 70
0
 42
0.0156673
  0
VERTEX
  8
MCX_PLUG_THRU_2_GOLD
 39
0
 10
22.750000
 20
17.355970
 30
0.000000
 70
0
 42
0
  0
VERTEX
  8
MCX_PLUG_THRU_2_GOLD
 39
0
 10
22.750000
 20
18.401721
 30
0.000000
 70
0
 42
0
  0
VERTEX
  8
MCX_PLUG_THRU_2_GOLD
 39
0
 10
21.350000
 20
18.401721
 30
0.000000
 70
0
 42
0
  0
SEQEND
  8
MCX_PLUG_THRU_2_GOLD
  0
POLYLINE
  8
MCX_PLUG_THRU_2_GOLD
 66
1
 39
0
 10
0.000000
 20
0.000000
 30
0.000000
 70
1
  0
VERTEX
  8
MCX_PLUG_THRU_2_GOLD
 39
0
 10
22.750000
 20
21.601721
 30
0.000000
 70
0
 42
0
  0
VERTEX
  8
MCX_PLUG_THRU_2_GOLD
 39
0
 10
22.750000
 20
22.647473
 30
0.000000
 70
0
 42
0.0156673
  0
VERTEX
  8
MCX_PLUG_THRU_2_GOLD
 39
0
 10
22.578427
 20
22.830148
 30
0.000000
 70
0
 42
0.0156673
  0
VERTEX
  8
MCX_PLUG_THRU_2_GOLD
 39
0
 10
22.395751
 20
23.001721
 30
0.000000
 70
0
 42
0
  0
VERTEX
  8
MCX_PLUG_THRU_2_GOLD
 39
0
 10
21.350000
 20
23.001721
 30
0.000000
 70
0
 42
0
  0
VERTEX
  8
MCX_PLUG_THRU_2_GOLD
 39
0
 10
21.350000
 20
21.601721
 30
0.000000
 70
0
 42
0
  0
SEQEND
  8
MCX_PLUG_THRU_2_GOLD
  0
POLYLINE
  8
MCX_PLUG_THRU_2_GOLD
 66
1
 39
0
 10
0.000000
 20
0.000000
 30
0.000000
 70
1
  0
VERTEX
  8
MCX_PLUG_THRU_2_GOLD
 39
0
 10
16.750000
 20
18.401721
 30
0.000000
 70
0
 42
0
  0
VERTEX
  8
MCX_PLUG_THRU_2_GOLD
 39
0
 10
16.750000
 20
17.355970
 30
0.000000
 70
0
 42
0.0156673
  0
VERTEX
  8
MCX_PLUG_THRU_2_GOLD
 39
0
 10
16.921573
 20
17.173294
 30
0.000000
 70
0
 42
0.0156673
  0
VERTEX
  8
MCX_PLUG_THRU_2_GOLD
 39
0
 10
17.104249
 20
17.001721
 30
0.000000
 70
0
 42
0
  0
VERTEX
  8
MCX_PLUG_THRU_2_GOLD
 39
0
 10
18.150000
 20
17.001721
 30
0.000000
 70
0
 42
0
  0
VERTEX
  8
MCX_PLUG_THRU_2_GOLD
 39
0
 10
18.150000
 20
18.401721
 30
0.000000
 70
0
 42
0
  0
SEQEND
  8
MCX_PLUG_THRU_2_GOLD
  0
POLYLINE
  8
MCX_PLUG_THRU_2_GOLD
 66
1
 39
0
 10
0.000000
 20
0.000000
 30
0.000000
 70
1
  0
VERTEX
  8
MCX_PLUG_THRU_2_GOLD
 39
0
 10
18.150000
 20
23.001721
 30
0.000000
 70
0
 42
0
  0
VERTEX
  8
MCX_PLUG_THRU_2_GOLD
 39
0
 10
17.104249
 20
23.001721
 30
0.000000
 70
0
 42
0.0156673
  0
VERTEX
  8
MCX_PLUG_THRU_2_GOLD
 39
0
 10
16.921573
 20
22.830148
 30
0.000000
 70
0
 42
0.0156673
  0
VERTEX
  8
MCX_PLUG_THRU_2_GOLD
 39
0
 10
16.750000
 20
22.647473
 30
0.000000
 70
0
 42
0
  0
VERTEX
  8
MCX_PLUG_THRU_2_GOLD
 39
0
 10
16.750000
 20
21.601721
 30
0.000000
 70
0
 42
0
  0
VERTEX
  8
MCX_PLUG_THRU_2_GOLD
 39
0
 10
18.150000
 20
21.601721
 30
0.000000
 70
0
 42
0
  0
SEQEND
  8
MCX_PLUG_THRU_2_GOLD
  0
ENDSEC
  0
EOF
