  0
SECTION
  2
HEADER
  9
$ACADVER
  1
AC1009
  0
ENDSEC
  0
SECTION
  2
ENTITIES
  0
CIRCLE
  8
COPPER (ANNEALED)
 39
0
 10
44.250000
 20
20.000000
 30
0.000000
 40
0.6
  0
POLYLINE
  8
COPPER (ANNEALED)
 66
1
 39
0
 10
0.000000
 20
0.000000
 30
0.000000
 70
1
  0
VERTEX
  8
COPPER (ANNEALED)
 39
0
 10
44.400976
 20
23.494817
 30
0.000000
 70
0
 42
0
  0
VERTEX
  8
COPPER (ANNEALED)
 39
0
 10
47.525000
 20
23.494817
 30
0.000000
 70
0
 42
-0.198912
  0
VERTEX
  8
COPPER (ANNEALED)
 39
0
 10
48.232107
 20
23.201923
 30
0.000000
 70
0
 42
-0.198912
  0
VERTEX
  8
COPPER (ANNEALED)
 39
0
 10
48.525000
 20
22.494817
 30
0.000000
 70
0
 42
0
  0
VERTEX
  8
COPPER (ANNEALED)
 39
0
 10
48.525000
 20
16.220000
 30
0.000000
 70
0
 42
-0.198912
  0
VERTEX
  8
COPPER (ANNEALED)
 39
0
 10
48.232107
 20
15.512893
 30
0.000000
 70
0
 42
-0.198912
  0
VERTEX
  8
COPPER (ANNEALED)
 39
0
 10
47.525000
 20
15.220000
 30
0.000000
 70
0
 42
0
  0
VERTEX
  8
COPPER (ANNEALED)
 39
0
 10
46.135000
 20
15.220000
 30
0.000000
 70
0
 42
-0.198912
  0
VERTEX
  8
COPPER (ANNEALED)
 39
0
 10
45.427893
 20
15.512893
 30
0.000000
 70
0
 42
-0.198912
  0
VERTEX
  8
COPPER (ANNEALED)
 39
0
 10
45.135000
 20
16.220000
 30
0.000000
 70
0
 42
0
  0
VERTEX
  8
COPPER (ANNEALED)
 39
0
 10
45.135000
 20
20.000000
 30
0.000000
 70
0
 42
0.414214
  0
VERTEX
  8
COPPER (ANNEALED)
 39
0
 10
44.250000
 20
20.885000
 30
0.000000
 70
0
 42
0.414214
  0
VERTEX
  8
COPPER (ANNEALED)
 39
0
 10
43.365000
 20
20.000000
 30
0.000000
 70
0
 42
0
  0
VERTEX
  8
COPPER (ANNEALED)
 39
0
 10
43.365000
 20
16.220000
 30
0.000000
 70
0
 42
0.198912
  0
VERTEX
  8
COPPER (ANNEALED)
 39
0
 10
44.176314
 20
14.261314
 30
0.000000
 70
0
 42
0.198912
  0
VERTEX
  8
COPPER (ANNEALED)
 39
0
 10
46.135000
 20
13.450000
 30
0.000000
 70
0
 42
0
  0
VERTEX
  8
COPPER (ANNEALED)
 39
0
 10
47.525000
 20
13.450000
 30
0.000000
 70
0
 42
0.198912
  0
VERTEX
  8
COPPER (ANNEALED)
 39
0
 10
49.483686
 20
14.261314
 30
0.000000
 70
0
 42
0.198912
  0
VERTEX
  8
COPPER (ANNEALED)
 39
0
 10
50.295000
 20
16.220000
 30
0.000000
 70
0
 42
0
  0
VERTEX
  8
COPPER (ANNEALED)
 39
0
 10
50.295000
 20
22.494817
 30
0.000000
 70
0
 42
0.198912
  0
VERTEX
  8
COPPER (ANNEALED)
 39
0
 10
49.483686
 20
24.453502
 30
0.000000
 70
0
 42
0.198912
  0
VERTEX
  8
COPPER (ANNEALED)
 39
0
 10
47.525000
 20
25.264817
 30
0.000000
 70
0
 42
0
  0
VERTEX
  8
COPPER (ANNEALED)
 39
0
 10
44.400976
 20
25.264817
 30
0.000000
 70
0
 42
-0.0984914
  0
VERTEX
  8
COPPER (ANNEALED)
 39
0
 10
44.018293
 20
25.340937
 30
0.000000
 70
0
 42
-0.0984914
  0
VERTEX
  8
COPPER (ANNEALED)
 39
0
 10
43.693869
 20
25.557710
 30
0.000000
 70
0
 42
0
  0
VERTEX
  8
COPPER (ANNEALED)
 39
0
 10
37.999801
 20
31.251778
 30
0.000000
 70
0
 42
0
  0
VERTEX
  8
COPPER (ANNEALED)
 39
0
 10
36.748222
 20
30.000199
 30
0.000000
 70
0
 42
0
  0
VERTEX
  8
COPPER (ANNEALED)
 39
0
 10
42.442290
 20
24.306131
 30
0.000000
 70
0
 42
0.0984914
  0
VERTEX
  8
COPPER (ANNEALED)
 39
0
 10
43.340943
 20
23.705670
 30
0.000000
 70
0
 42
0.0984914
  0
SEQEND
  8
COPPER (ANNEALED)
  0
CIRCLE
  8
COPPER (ANNEALED)
 39
0
 10
19.750000
 20
20.000000
 30
0.000000
 40
0.6
  0
POLYLINE
  8
COPPER (ANNEALED)
 66
1
 39
0
 10
0.000000
 20
0.000000
 30
0.000000
 70
1
  0
VERTEX
  8
COPPER (ANNEALED)
 39
0
 10
16.475000
 20
23.494817
 30
0.000000
 70
0
 42
0
  0
VERTEX
  8
COPPER (ANNEALED)
 39
0
 10
19.599024
 20
23.494817
 30
0.000000
 70
0
 42
0.0984914
  0
VERTEX
  8
COPPER (ANNEALED)
 39
0
 10
20.659057
 20
23.705670
 30
0.000000
 70
0
 42
0.0984914
  0
VERTEX
  8
COPPER (ANNEALED)
 39
0
 10
21.557710
 20
24.306131
 30
0.000000
 70
0
 42
0
  0
VERTEX
  8
COPPER (ANNEALED)
 39
0
 10
27.251778
 20
30.000199
 30
0.000000
 70
0
 42
0
  0
VERTEX
  8
COPPER (ANNEALED)
 39
0
 10
26.000199
 20
31.251778
 30
0.000000
 70
0
 42
0
  0
VERTEX
  8
COPPER (ANNEALED)
 39
0
 10
20.306131
 20
25.557710
 30
0.000000
 70
0
 42
-0.0984914
  0
VERTEX
  8
COPPER (ANNEALED)
 39
0
 10
19.981707
 20
25.340937
 30
0.000000
 70
0
 42
-0.0984914
  0
VERTEX
  8
COPPER (ANNEALED)
 39
0
 10
19.599024
 20
25.264817
 30
0.000000
 70
0
 42
0
  0
VERTEX
  8
COPPER (ANNEALED)
 39
0
 10
16.475000
 20
25.264817
 30
0.000000
 70
0
 42
0.198912
  0
VERTEX
  8
COPPER (ANNEALED)
 39
0
 10
14.516314
 20
24.453502
 30
0.000000
 70
0
 42
0.198912
  0
VERTEX
  8
COPPER (ANNEALED)
 39
0
 10
13.705000
 20
22.494817
 30
0.000000
 70
0
 42
0
  0
VERTEX
  8
COPPER (ANNEALED)
 39
0
 10
13.705000
 20
16.220000
 30
0.000000
 70
0
 42
0.198912
  0
VERTEX
  8
COPPER (ANNEALED)
 39
0
 10
14.516314
 20
14.261314
 30
0.000000
 70
0
 42
0.198912
  0
VERTEX
  8
COPPER (ANNEALED)
 39
0
 10
16.475000
 20
13.450000
 30
0.000000
 70
0
 42
0
  0
VERTEX
  8
COPPER (ANNEALED)
 39
0
 10
17.865000
 20
13.450000
 30
0.000000
 70
0
 42
0.198912
  0
VERTEX
  8
COPPER (ANNEALED)
 39
0
 10
19.823686
 20
14.261314
 30
0.000000
 70
0
 42
0.198912
  0
VERTEX
  8
COPPER (ANNEALED)
 39
0
 10
20.635000
 20
16.220000
 30
0.000000
 70
0
 42
0
  0
VERTEX
  8
COPPER (ANNEALED)
 39
0
 10
20.635000
 20
20.000000
 30
0.000000
 70
0
 42
0.414214
  0
VERTEX
  8
COPPER (ANNEALED)
 39
0
 10
19.750000
 20
20.885000
 30
0.000000
 70
0
 42
0.414214
  0
VERTEX
  8
COPPER (ANNEALED)
 39
0
 10
18.865000
 20
20.000000
 30
0.000000
 70
0
 42
0
  0
VERTEX
  8
COPPER (ANNEALED)
 39
0
 10
18.865000
 20
16.220000
 30
0.000000
 70
0
 42
-0.198912
  0
VERTEX
  8
COPPER (ANNEALED)
 39
0
 10
18.572107
 20
15.512893
 30
0.000000
 70
0
 42
-0.198912
  0
VERTEX
  8
COPPER (ANNEALED)
 39
0
 10
17.865000
 20
15.220000
 30
0.000000
 70
0
 42
0
  0
VERTEX
  8
COPPER (ANNEALED)
 39
0
 10
16.475000
 20
15.220000
 30
0.000000
 70
0
 42
-0.198912
  0
VERTEX
  8
COPPER (ANNEALED)
 39
0
 10
15.767893
 20
15.512893
 30
0.000000
 70
0
 42
-0.198912
  0
VERTEX
  8
COPPER (ANNEALED)
 39
0
 10
15.475000
 20
16.220000
 30
0.000000
 70
0
 42
0
  0
VERTEX
  8
COPPER (ANNEALED)
 39
0
 10
15.475000
 20
22.494817
 30
0.000000
 70
0
 42
-0.198912
  0
VERTEX
  8
COPPER (ANNEALED)
 39
0
 10
15.767893
 20
23.201923
 30
0.000000
 70
0
 42
-0.198912
  0
SEQEND
  8
COPPER (ANNEALED)
  0
CIRCLE
  8
COPPER (ANNEALED)
 39
0
 10
44.250000
 20
20.000000
 30
0.000000
 40
0.5652
  0
CIRCLE
  8
COPPER (ANNEALED)
 39
0
 10
44.250000
 20
20.000000
 30
0.000000
 40
0.6
  0
CIRCLE
  8
COPPER (ANNEALED)
 39
0
 10
19.750000
 20
20.000000
 30
0.000000
 40
0.5652
  0
CIRCLE
  8
COPPER (ANNEALED)
 39
0
 10
19.750000
 20
20.000000
 30
0.000000
 40
0.6
  0
ENDSEC
  0
EOF
