  0
SECTION
  2
HEADER
  9
$ACADVER
  1
AC1009
  0
ENDSEC
  0
SECTION
  2
ENTITIES
  0
CIRCLE
  8
COPPER (ANNEALED)
 39
0
 10
32.000000
 20
36.000000
 30
0.000000
 40
15.8
  0
POLYLINE
  8
COPPER (ANNEALED)
 66
1
 39
0
 10
0.000000
 20
0.000000
 30
0.000000
 70
1
  0
VERTEX
  8
COPPER (ANNEALED)
 39
0
 10
43.674469
 20
37.330138
 30
0.000000
 70
0
 42
0.169586
  0
VERTEX
  8
COPPER (ANNEALED)
 39
0
 10
40.308505
 20
44.308505
 30
0.000000
 70
0
 42
0.169586
  0
VERTEX
  8
COPPER (ANNEALED)
 39
0
 10
33.330138
 20
47.674469
 30
0.000000
 70
0
 42
0
  0
VERTEX
  8
COPPER (ANNEALED)
 39
0
 10
33.641447
 20
50.406792
 30
0.000000
 70
0
 42
-0.0780432
  0
VERTEX
  8
COPPER (ANNEALED)
 39
0
 10
37.978488
 20
49.210135
 30
0.000000
 70
0
 42
-0.0780432
  0
VERTEX
  8
COPPER (ANNEALED)
 39
0
 10
41.739949
 20
46.741667
 30
0.000000
 70
0
 42
0
  0
VERTEX
  8
COPPER (ANNEALED)
 39
0
 10
41.236158
 20
46.186063
 30
0.000000
 70
0
 42
0.0675156
  0
VERTEX
  8
COPPER (ANNEALED)
 39
0
 10
38.188854
 20
48.278460
 30
0.000000
 70
0
 42
0.0675156
  0
VERTEX
  8
COPPER (ANNEALED)
 39
0
 10
34.694259
 20
49.483452
 30
0.000000
 70
0
 42
0
  0
VERTEX
  8
COPPER (ANNEALED)
 39
0
 10
34.449327
 20
48.257683
 30
0.000000
 70
0
 42
-0.148113
  0
VERTEX
  8
COPPER (ANNEALED)
 39
0
 10
40.838835
 20
44.838835
 30
0.000000
 70
0
 42
-0.148113
  0
VERTEX
  8
COPPER (ANNEALED)
 39
0
 10
44.257683
 20
38.449327
 30
0.000000
 70
0
 42
0
  0
VERTEX
  8
COPPER (ANNEALED)
 39
0
 10
45.483452
 20
38.694259
 30
0.000000
 70
0
 42
0.0675156
  0
VERTEX
  8
COPPER (ANNEALED)
 39
0
 10
44.278460
 20
42.188854
 30
0.000000
 70
0
 42
0.0675156
  0
VERTEX
  8
COPPER (ANNEALED)
 39
0
 10
42.186063
 20
45.236158
 30
0.000000
 70
0
 42
0
  0
VERTEX
  8
COPPER (ANNEALED)
 39
0
 10
42.741667
 20
45.739949
 30
0.000000
 70
0
 42
-0.0780432
  0
VERTEX
  8
COPPER (ANNEALED)
 39
0
 10
45.210135
 20
41.978488
 30
0.000000
 70
0
 42
-0.0780432
  0
VERTEX
  8
COPPER (ANNEALED)
 39
0
 10
46.406792
 20
37.641447
 30
0.000000
 70
0
 42
0
  0
SEQEND
  8
COPPER (ANNEALED)
  0
POLYLINE
  8
COPPER (ANNEALED)
 66
1
 39
0
 10
0.000000
 20
0.000000
 30
0.000000
 70
1
  0
VERTEX
  8
COPPER (ANNEALED)
 39
0
 10
30.669862
 20
47.674469
 30
0.000000
 70
0
 42
0.169586
  0
VERTEX
  8
COPPER (ANNEALED)
 39
0
 10
23.691495
 20
44.308505
 30
0.000000
 70
0
 42
0.169586
  0
VERTEX
  8
COPPER (ANNEALED)
 39
0
 10
20.325531
 20
37.330138
 30
0.000000
 70
0
 42
0
  0
VERTEX
  8
COPPER (ANNEALED)
 39
0
 10
17.593208
 20
37.641447
 30
0.000000
 70
0
 42
-0.0780432
  0
VERTEX
  8
COPPER (ANNEALED)
 39
0
 10
18.789865
 20
41.978488
 30
0.000000
 70
0
 42
-0.0780432
  0
VERTEX
  8
COPPER (ANNEALED)
 39
0
 10
21.258333
 20
45.739949
 30
0.000000
 70
0
 42
0
  0
VERTEX
  8
COPPER (ANNEALED)
 39
0
 10
21.813937
 20
45.236158
 30
0.000000
 70
0
 42
0.0675156
  0
VERTEX
  8
COPPER (ANNEALED)
 39
0
 10
19.721540
 20
42.188854
 30
0.000000
 70
0
 42
0.0675156
  0
VERTEX
  8
COPPER (ANNEALED)
 39
0
 10
18.516548
 20
38.694259
 30
0.000000
 70
0
 42
0
  0
VERTEX
  8
COPPER (ANNEALED)
 39
0
 10
19.742317
 20
38.449327
 30
0.000000
 70
0
 42
-0.148113
  0
VERTEX
  8
COPPER (ANNEALED)
 39
0
 10
23.161165
 20
44.838835
 30
0.000000
 70
0
 42
-0.148113
  0
VERTEX
  8
COPPER (ANNEALED)
 39
0
 10
29.550673
 20
48.257683
 30
0.000000
 70
0
 42
0
  0
VERTEX
  8
COPPER (ANNEALED)
 39
0
 10
29.305741
 20
49.483452
 30
0.000000
 70
0
 42
0.0675156
  0
VERTEX
  8
COPPER (ANNEALED)
 39
0
 10
25.811146
 20
48.278460
 30
0.000000
 70
0
 42
0.0675156
  0
VERTEX
  8
COPPER (ANNEALED)
 39
0
 10
22.763842
 20
46.186063
 30
0.000000
 70
0
 42
0
  0
VERTEX
  8
COPPER (ANNEALED)
 39
0
 10
22.260051
 20
46.741667
 30
0.000000
 70
0
 42
-0.0780432
  0
VERTEX
  8
COPPER (ANNEALED)
 39
0
 10
26.021512
 20
49.210135
 30
0.000000
 70
0
 42
-0.0780432
  0
VERTEX
  8
COPPER (ANNEALED)
 39
0
 10
30.358553
 20
50.406792
 30
0.000000
 70
0
 42
0
  0
SEQEND
  8
COPPER (ANNEALED)
  0
POLYLINE
  8
COPPER (ANNEALED)
 66
1
 39
0
 10
0.000000
 20
0.000000
 30
0.000000
 70
1
  0
VERTEX
  8
COPPER (ANNEALED)
 39
0
 10
33.330138
 20
24.325531
 30
0.000000
 70
0
 42
0.169586
  0
VERTEX
  8
COPPER (ANNEALED)
 39
0
 10
40.308505
 20
27.691495
 30
0.000000
 70
0
 42
0.169586
  0
VERTEX
  8
COPPER (ANNEALED)
 39
0
 10
43.674469
 20
34.669862
 30
0.000000
 70
0
 42
0
  0
VERTEX
  8
COPPER (ANNEALED)
 39
0
 10
46.406792
 20
34.358553
 30
0.000000
 70
0
 42
-0.0780432
  0
VERTEX
  8
COPPER (ANNEALED)
 39
0
 10
45.210135
 20
30.021512
 30
0.000000
 70
0
 42
-0.0780432
  0
VERTEX
  8
COPPER (ANNEALED)
 39
0
 10
42.741667
 20
26.260051
 30
0.000000
 70
0
 42
0
  0
VERTEX
  8
COPPER (ANNEALED)
 39
0
 10
42.186063
 20
26.763842
 30
0.000000
 70
0
 42
0.0675156
  0
VERTEX
  8
COPPER (ANNEALED)
 39
0
 10
44.278460
 20
29.811146
 30
0.000000
 70
0
 42
0.0675156
  0
VERTEX
  8
COPPER (ANNEALED)
 39
0
 10
45.483452
 20
33.305741
 30
0.000000
 70
0
 42
0
  0
VERTEX
  8
COPPER (ANNEALED)
 39
0
 10
44.257683
 20
33.550673
 30
0.000000
 70
0
 42
-0.148113
  0
VERTEX
  8
COPPER (ANNEALED)
 39
0
 10
40.838835
 20
27.161165
 30
0.000000
 70
0
 42
-0.148113
  0
VERTEX
  8
COPPER (ANNEALED)
 39
0
 10
34.449327
 20
23.742317
 30
0.000000
 70
0
 42
0
  0
VERTEX
  8
COPPER (ANNEALED)
 39
0
 10
34.694259
 20
22.516548
 30
0.000000
 70
0
 42
0.0675156
  0
VERTEX
  8
COPPER (ANNEALED)
 39
0
 10
38.188854
 20
23.721540
 30
0.000000
 70
0
 42
0.0675156
  0
VERTEX
  8
COPPER (ANNEALED)
 39
0
 10
41.236158
 20
25.813937
 30
0.000000
 70
0
 42
0
  0
VERTEX
  8
COPPER (ANNEALED)
 39
0
 10
41.739949
 20
25.258333
 30
0.000000
 70
0
 42
-0.0780432
  0
VERTEX
  8
COPPER (ANNEALED)
 39
0
 10
37.978488
 20
22.789865
 30
0.000000
 70
0
 42
-0.0780432
  0
VERTEX
  8
COPPER (ANNEALED)
 39
0
 10
33.641447
 20
21.593208
 30
0.000000
 70
0
 42
0
  0
SEQEND
  8
COPPER (ANNEALED)
  0
POLYLINE
  8
COPPER (ANNEALED)
 66
1
 39
0
 10
0.000000
 20
0.000000
 30
0.000000
 70
1
  0
VERTEX
  8
COPPER (ANNEALED)
 39
0
 10
20.325531
 20
34.669862
 30
0.000000
 70
0
 42
0.169586
  0
VERTEX
  8
COPPER (ANNEALED)
 39
0
 10
23.691495
 20
27.691495
 30
0.000000
 70
0
 42
0.169586
  0
VERTEX
  8
COPPER (ANNEALED)
 39
0
 10
30.669862
 20
24.325531
 30
0.000000
 70
0
 42
0
  0
VERTEX
  8
COPPER (ANNEALED)
 39
0
 10
30.358553
 20
21.593208
 30
0.000000
 70
0
 42
-0.0780432
  0
VERTEX
  8
COPPER (ANNEALED)
 39
0
 10
26.021512
 20
22.789865
 30
0.000000
 70
0
 42
-0.0780432
  0
VERTEX
  8
COPPER (ANNEALED)
 39
0
 10
22.260051
 20
25.258333
 30
0.000000
 70
0
 42
0
  0
VERTEX
  8
COPPER (ANNEALED)
 39
0
 10
22.763842
 20
25.813937
 30
0.000000
 70
0
 42
0.0675156
  0
VERTEX
  8
COPPER (ANNEALED)
 39
0
 10
25.811146
 20
23.721540
 30
0.000000
 70
0
 42
0.0675156
  0
VERTEX
  8
COPPER (ANNEALED)
 39
0
 10
29.305741
 20
22.516548
 30
0.000000
 70
0
 42
0
  0
VERTEX
  8
COPPER (ANNEALED)
 39
0
 10
29.550673
 20
23.742317
 30
0.000000
 70
0
 42
-0.148113
  0
VERTEX
  8
COPPER (ANNEALED)
 39
0
 10
23.161165
 20
27.161165
 30
0.000000
 70
0
 42
-0.148113
  0
VERTEX
  8
COPPER (ANNEALED)
 39
0
 10
19.742317
 20
33.550673
 30
0.000000
 70
0
 42
0
  0
VERTEX
  8
COPPER (ANNEALED)
 39
0
 10
18.516548
 20
33.305741
 30
0.000000
 70
0
 42
0.0675156
  0
VERTEX
  8
COPPER (ANNEALED)
 39
0
 10
19.721540
 20
29.811146
 30
0.000000
 70
0
 42
0.0675156
  0
VERTEX
  8
COPPER (ANNEALED)
 39
0
 10
21.813937
 20
26.763842
 30
0.000000
 70
0
 42
0
  0
VERTEX
  8
COPPER (ANNEALED)
 39
0
 10
21.258333
 20
26.260051
 30
0.000000
 70
0
 42
-0.0780432
  0
VERTEX
  8
COPPER (ANNEALED)
 39
0
 10
18.789865
 20
30.021512
 30
0.000000
 70
0
 42
-0.0780432
  0
VERTEX
  8
COPPER (ANNEALED)
 39
0
 10
17.593208
 20
34.358553
 30
0.000000
 70
0
 42
0
  0
SEQEND
  8
COPPER (ANNEALED)
  0
ENDSEC
  0
EOF
